<?xml version="1.0" encoding="UTF-8" standalone="no"?>
<svg
   xmlns:dc="http://purl.org/dc/elements/1.1/"
   xmlns:cc="http://creativecommons.org/ns#"
   xmlns:rdf="http://www.w3.org/1999/02/22-rdf-syntax-ns#"
   xmlns:svg="http://www.w3.org/2000/svg"
   xmlns="http://www.w3.org/2000/svg"
   xmlns:sodipodi="http://sodipodi.sourceforge.net/DTD/sodipodi-0.dtd"
   xmlns:inkscape="http://www.inkscape.org/namespaces/inkscape"
   width="253.31277"
   height="276.78876"
   viewBox="0 0 67.022339 73.233696"
   version="1.1"
   id="svg16152"
   inkscape:version="1.0.2 (1.0.2+r75+1)"
   sodipodi:docname="logo2.svg">
  <defs
     id="defs16146" />
  <sodipodi:namedview
     id="base"
     pagecolor="#ffffff"
     bordercolor="#666666"
     borderopacity="1.0"
     inkscape:pageopacity="0.0"
     inkscape:pageshadow="2"
     inkscape:zoom="0.98994949"
     inkscape:cx="198.66854"
     inkscape:cy="150.86582"
     inkscape:document-units="mm"
     inkscape:current-layer="g16957"
     inkscape:document-rotation="0"
     showgrid="false"
     fit-margin-top="0"
     fit-margin-left="0"
     fit-margin-right="0"
     fit-margin-bottom="0"
     units="px"
     inkscape:window-width="1242"
     inkscape:window-height="711"
     inkscape:window-x="0"
     inkscape:window-y="25"
     inkscape:window-maximized="0" />
  <metadata
     id="metadata16149">
    <rdf:RDF>
      <cc:Work
         rdf:about="">
        <dc:format>image/svg+xml</dc:format>
        <dc:type
           rdf:resource="http://purl.org/dc/dcmitype/StillImage" />
        <dc:title></dc:title>
      </cc:Work>
    </rdf:RDF>
  </metadata>
  <g
     inkscape:label="Capa 1"
     inkscape:groupmode="layer"
     id="layer1"
     transform="translate(-80.233835,-84.905937)">
    <g
       id="g16957"
       transform="translate(-48.78306,-96.203246)">
      <g
         id="g11226"
         transform="matrix(0.26458333,0,0,0.26458333,125.02507,180.2096)">
        <path
           fill="#ffffff"
           d="m 60.6,31.5 c -0.4,0.1 -0.8,0.5 -1.2,1.1 -0.4,0.7 -0.7,1.5 -1,2.4 -0.3,0.9 -0.6,1.9 -0.8,3 -0.2,1 -0.4,2 -0.6,2.8 -0.5,4.5 -0.9,9 -1.2,13.4 -2.1,0.5 -4.2,0.9 -6.2,1.4 0.2,-2.5 0.3,-5 0.5,-7.4 -0.9,1.6 -1.9,3.3 -3.1,5.2 -1.2,1.9 -2.5,3.6 -4,5.3 -1.5,1.7 -3.2,3.2 -5,4.6 -1.8,1.4 -3.9,2.4 -6.1,3 -3.1,0.9 -5.8,0.9 -8,-0.1 -2.2,-1 -4,-2.6 -5.4,-4.9 -1.4,-2.3 -2.4,-5.1 -2.9,-8.5 -0.5,-3.3 -0.7,-6.9 -0.3,-10.7 0.3,-3.8 1.1,-7.6 2.4,-11.5 1.2,-3.9 2.9,-7.5 5.1,-10.8 2.1,-3.3 4.7,-6.2 7.7,-8.6 3,-2.4 6.3,-4.1 9.9,-4.9 2.7,-0.6 4.9,-0.6 6.7,-0.1 1.7,0.6 3,1.5 3.8,2.7 0.8,1.2 1.2,2.6 1.1,4.2 -0.1,1.6 -0.6,3.1 -1.5,4.6 -0.9,1.5 -2.2,2.8 -3.9,4 -1.7,1.2 -3.8,1.9 -6.3,2.3 -1.5,0.3 -2.7,0.2 -3.7,-0.1 -1,-0.3 -1.8,-0.8 -2.5,-1.2 -0.7,-0.6 -1.3,-1.2 -1.8,-2 1.5,0 2.8,-0.2 4.1,-0.8 1.3,-0.6 2.4,-1.3 3.4,-2.2 0.9,-0.9 1.7,-1.8 2.2,-2.7 0.5,-1 0.7,-1.8 0.7,-2.5 -0.1,-0.7 -0.5,-1.3 -1.3,-1.6 -0.8,-0.4 -2,-0.3 -3.7,0.1 -2.4,0.6 -4.6,1.8 -6.4,3.7 -1.8,1.9 -3.3,4.2 -4.5,6.9 -1.2,2.7 -2,5.7 -2.6,8.9 -0.6,3.2 -0.8,6.4 -0.8,9.6 0,3.2 0.3,6.3 0.8,9.2 0.5,2.9 1.3,5.4 2.3,7.5 1,2.1 2.1,3.7 3.5,4.8 1.3,1.1 2.8,1.3 4.6,0.9 1.9,-0.5 3.7,-1.6 5.4,-3.2 1.7,-1.6 3.3,-3.4 4.7,-5.3 1.4,-1.9 2.6,-3.8 3.7,-5.7 1,-1.9 1.8,-3.4 2.4,-4.5 0.9,-10.6 2,-21.3 3.4,-31.9 2.3,-0.5 4.6,-0.9 6.9,-1.3 -1,7.1 -1.9,14.1 -2.7,21.2 C 59.1,30.3 60,29 61,28 c 1,-1.1 2.1,-1.7 3.4,-1.9 1.6,-0.3 2.7,0 3.2,1 0.5,1 0.8,2.3 0.7,3.8 0,1.6 -0.3,3.4 -0.7,5.3 -0.4,2 -0.7,3.7 -1.1,5.4 -0.3,1.6 -0.5,3 -0.5,4.1 0,1.1 0.4,1.5 1.1,1.4 0.5,-0.1 1.1,-0.4 1.8,-1 0.7,-0.5 1.2,-1.5 1.6,-2.7 0.4,-0.1 0.8,-0.1 1.1,-0.2 -0.6,1.4 -1,2.7 -1.6,3.8 -0.6,1.1 -1.2,2 -1.9,2.8 -0.7,0.8 -1.4,1.3 -2.1,1.8 -0.7,0.4 -1.4,0.7 -2,0.8 -1.2,0.2 -2.1,0.1 -2.8,-0.4 -0.7,-0.5 -1.1,-1.2 -1.4,-2.2 -0.3,-1 -0.4,-2.1 -0.4,-3.4 0,-1.3 0.1,-2.6 0.3,-4 0.2,-1.4 0.4,-2.8 0.7,-4.1 0.3,-1.3 0.5,-2.5 0.6,-3.6 0.1,-1.1 0.2,-1.9 0.2,-2.5 0,-0.5 -0.3,-0.8 -0.6,-0.7 z"
           id="path11204" />
        <path
           fill="#ffffff"
           d="m 84,22.8 c 1.9,-0.3 3.4,-0.1 4.5,0.4 1.1,0.5 2,1.4 2.5,2.5 0.5,1.1 0.8,2.5 0.8,4 0,1.6 -0.2,3.3 -0.5,5.1 -0.4,1.8 -1,3.6 -1.8,5.3 -0.8,1.7 -1.7,3.2 -2.8,4.5 -1,1.3 -2.2,2.4 -3.4,3.2 -1.2,0.8 -2.4,1.4 -3.7,1.6 -1.8,0.3 -3.2,0.2 -4.3,-0.3 -1.1,-0.5 -1.9,-1.3 -2.5,-2.4 -0.6,-1.1 -0.9,-2.4 -1,-4 -0.1,-1.6 0,-3.3 0.2,-5.2 0.2,-1.8 0.7,-3.6 1.5,-5.4 0.7,-1.7 1.7,-3.3 2.7,-4.6 1.1,-1.3 2.3,-2.5 3.6,-3.3 1.4,-0.7 2.8,-1.2 4.2,-1.4 z m -3.7,23.6 c 0.6,-0.1 1.1,-0.7 1.6,-1.7 0.5,-1 0.9,-2.3 1.4,-3.9 0.4,-1.5 0.8,-3.2 1,-4.9 0.3,-1.7 0.4,-3.3 0.5,-4.8 0,-1.5 0,-2.7 -0.3,-3.6 -0.2,-0.9 -0.7,-1.4 -1.3,-1.3 -0.6,0.1 -1.2,0.7 -1.8,1.7 -0.6,1 -1,2.3 -1.4,3.9 -0.4,1.5 -0.7,3.2 -0.9,4.9 -0.2,1.7 -0.3,3.3 -0.3,4.8 0,1.5 0.1,2.7 0.4,3.6 0.2,1 0.6,1.4 1.1,1.3 z"
           id="path11206" />
        <path
           fill="#ffffff"
           d="m 108.9,24.8 c -0.3,0.3 -0.4,0.5 -0.5,0.9 0,0.3 0,0.7 0.1,1 0.1,0.3 0.3,0.5 0.6,0.7 0.3,0.2 0.5,0.3 0.8,0.2 0.4,0 0.7,-0.3 0.8,-0.9 0.1,-0.6 0.1,-1.2 0,-1.8 -0.1,-0.7 -0.5,-1.2 -1,-1.7 -0.5,-0.5 -1.3,-0.7 -2.2,-0.7 -1.1,0.1 -2.2,0.7 -3,1.7 -0.9,1.1 -1.6,2.4 -2.1,3.9 -0.5,1.5 -0.9,3.2 -1.1,4.9 -0.2,1.7 -0.2,3.3 0.1,4.8 0.2,1.5 0.6,2.7 1.2,3.6 0.6,0.9 1.3,1.4 2.3,1.3 1.6,-0.1 3,-0.7 4.3,-1.8 1.3,-1 2.5,-2.2 3.5,-3.4 1.2,-1.4 2.2,-3 3.2,-4.8 0.4,0 0.8,0 1.2,-0.1 -1,2.5 -2.2,4.7 -3.7,6.6 -0.6,0.9 -1.3,1.7 -2,2.5 -0.8,0.8 -1.6,1.5 -2.5,2.2 -0.9,0.7 -1.9,1.2 -2.9,1.7 -1,0.5 -2.2,0.7 -3.4,0.9 -2.2,0.2 -4,-0.2 -5.3,-1.4 C 96,44 95,42.5 94.6,40.6 94.1,38.7 94,36.7 94.4,34.4 c 0.3,-2.3 1.1,-4.5 2.3,-6.5 1.2,-2 2.8,-3.8 4.8,-5.3 2,-1.5 4.4,-2.3 7.2,-2.5 1.5,-0.1 2.6,0.1 3.6,0.6 0.9,0.5 1.6,1.2 2,2 0.4,0.8 0.6,1.8 0.5,2.8 -0.1,1 -0.4,1.9 -0.9,2.8 -0.5,0.9 -1.3,1.7 -2.2,2.3 -0.9,0.6 -2,1 -3.3,1.1 -1.5,0.1 -2.5,-0.2 -3.1,-1 -0.6,-0.8 -0.9,-1.6 -0.8,-2.6 0.1,-1 0.5,-1.8 1.3,-2.6 0.9,-0.6 1.9,-0.9 3.1,-0.7 z"
           id="path11208" />
        <path
           fill="#ffffff"
           d="m 130.3,19.1 c 1.9,0 3.4,0.3 4.4,0.9 1.1,0.7 1.8,1.6 2.2,2.7 0.4,1.2 0.5,2.5 0.3,4.1 -0.2,1.6 -0.5,3.3 -1.1,5 -0.6,1.8 -1.3,3.5 -2.3,5.1 -1,1.6 -2.1,3 -3.3,4.2 -1.2,1.2 -2.4,2.1 -3.7,2.8 -1.3,0.7 -2.6,1.1 -3.8,1.1 -1.8,0.1 -3.2,-0.2 -4.2,-0.8 -1,-0.6 -1.8,-1.5 -2.2,-2.6 -0.4,-1.1 -0.6,-2.5 -0.5,-4.1 0.1,-1.6 0.4,-3.3 0.8,-5.1 0.4,-1.8 1.1,-3.5 2,-5.2 0.9,-1.6 2,-3.1 3.2,-4.3 1.2,-1.2 2.5,-2.2 3.9,-2.9 1.5,-0.5 2.9,-0.8 4.3,-0.9 z m -6.2,23.1 c 0.6,0 1.2,-0.5 1.8,-1.5 0.6,-1 1.2,-2.2 1.8,-3.7 0.6,-1.5 1.1,-3.1 1.6,-4.7 0.5,-1.7 0.8,-3.3 1,-4.7 0.2,-1.5 0.3,-2.7 0.1,-3.6 -0.1,-1 -0.5,-1.4 -1.2,-1.4 -0.6,0 -1.3,0.5 -2,1.5 -0.7,1 -1.3,2.2 -1.8,3.7 -0.6,1.5 -1,3.1 -1.4,4.8 -0.4,1.7 -0.7,3.3 -0.8,4.7 -0.2,1.5 -0.2,2.7 0,3.6 0,0.9 0.4,1.4 0.9,1.3 z"
           id="path11210" />
        <path
           fill="#ffffff"
           d="m 145.8,36.1 c -0.6,1.7 -0.8,2.8 -0.7,3.3 0.1,0.5 0.4,0.8 0.8,0.9 0.5,0.1 1.2,0 2,-0.5 0.8,-0.5 1.5,-1.3 2.1,-2.5 0.4,0 0.8,0 1.2,0 -0.6,1.4 -1.3,2.6 -2.1,3.5 -0.8,1 -1.6,1.7 -2.4,2.4 -0.8,0.6 -1.6,1 -2.4,1.3 -0.8,0.3 -1.5,0.4 -2.1,0.4 -0.7,0 -1.3,-0.1 -1.9,-0.4 -0.6,-0.3 -1.1,-0.7 -1.4,-1.3 -0.4,-0.6 -0.5,-1.5 -0.5,-2.7 0,-1.2 0.3,-2.7 0.8,-4.5 3.4,-10.9 7.2,-21.8 11.2,-32.6 2.4,0.1 4.7,0.1 7.1,0.2 -2.1,5.4 -3.9,10.4 -5.5,14.8 -0.7,1.9 -1.4,3.8 -2.1,5.7 -0.7,1.9 -1.3,3.7 -1.8,5.3 -0.5,1.6 -1,3 -1.4,4.2 -0.5,1.2 -0.8,2 -0.9,2.5 z"
           id="path11212" />
        <path
           fill="#ffffff"
           d="m 176.2,21.2 c -1,2.3 -1.9,4.6 -2.8,6.6 -0.7,1.8 -1.5,3.5 -2.2,5.3 -0.7,1.8 -1.3,3.1 -1.6,4 -0.7,1.7 -1,2.8 -0.9,3.3 0.1,0.5 0.3,0.8 0.7,0.9 0.5,0.2 1.2,0.1 2.1,-0.4 0.9,-0.4 1.6,-1.2 2.3,-2.3 0.3,0 0.7,0.1 1,0.1 -0.7,1.4 -1.5,2.5 -2.3,3.4 -0.8,0.9 -1.7,1.7 -2.6,2.2 -0.9,0.6 -1.7,0.9 -2.5,1.2 -0.8,0.2 -1.5,0.3 -2.1,0.3 -0.8,-0.1 -1.6,-0.3 -2.4,-0.9 -0.7,-0.5 -1.1,-1.5 -1.1,-3 -1.1,0.9 -2.3,1.7 -3.6,2.4 -1.4,0.6 -2.7,0.9 -3.9,0.9 -0.9,0 -1.6,-0.3 -2.2,-0.9 -0.6,-0.6 -0.9,-1.5 -1.1,-2.6 -0.1,-1.2 0.1,-2.6 0.5,-4.4 0.5,-1.8 1.3,-3.8 2.5,-6.2 1.2,-2.4 2.7,-4.4 4.6,-6 1.9,-1.6 3.8,-2.9 5.9,-3.7 2.1,-0.8 4.1,-1.3 6.2,-1.3 2.1,-0.1 3.9,0.3 5.5,1.1 z m -14,17.7 c 0.2,-0.7 0.4,-1.4 0.8,-2.2 1.7,-4.4 3.4,-8.8 5.2,-13.2 -0.3,-0.1 -0.6,-0.2 -0.9,-0.2 -0.8,-0.1 -1.6,0.3 -2.5,1.1 -0.9,0.8 -1.7,1.8 -2.6,3.1 -0.8,1.3 -1.6,2.6 -2.2,4.1 -0.7,1.5 -1.2,2.8 -1.5,4.1 -0.3,1.3 -0.4,2.4 -0.4,3.2 0.1,0.9 0.4,1.3 1,1.3 0.5,0 1,-0.1 1.6,-0.4 0.6,-0.3 1.1,-0.6 1.5,-0.9 z"
           id="path11214" />
        <path
           fill="#ffffff"
           d="m 182.7,21.5 c 1.6,-3.6 3.3,-7.2 5,-10.8 2.3,0.3 4.6,0.5 6.9,0.8 -0.5,1.1 -1.1,2.2 -1.6,3.3 -0.5,1 -1,2.1 -1.6,3.4 -0.6,1.3 -1.2,2.6 -1.9,4 1.6,0.2 3.1,0.4 4.7,0.6 -0.1,1 -0.3,2 -0.4,3.1 -1.9,-0.2 -3.8,-0.5 -5.6,-0.7 -1.6,3.5 -3.3,7.1 -4.8,10.6 -1.1,2.2 -1.6,3.9 -1.7,5.1 -0.1,1.2 0.2,1.8 1,1.9 0.7,0.1 1.5,-0.3 2.5,-1 0.9,-0.8 1.9,-1.7 2.8,-2.7 0.9,-1.1 1.8,-2.1 2.6,-3.2 0.8,-1.1 1.4,-1.9 1.8,-2.4 0.4,0.1 0.8,0.1 1.2,0.2 -0.6,1 -1.4,2.3 -2.5,3.9 -1.1,1.6 -2.3,3.1 -3.6,4.5 -1.3,1.4 -2.7,2.6 -4,3.6 -1.4,1 -2.7,1.4 -4.1,1.3 -2.1,-0.2 -3.4,-1.3 -4,-3.3 -0.6,-2 -0.1,-4.8 1.5,-8.4 1.5,-3.6 3.1,-7.1 4.7,-10.7 -0.9,-0.1 -1.8,-0.2 -2.7,-0.3 0.1,-1 0.2,-2 0.3,-3.1 1,0.1 2.3,0.2 3.5,0.3 z"
           id="path11216" />
        <path
           fill="#ffffff"
           d="m 208.5,24.7 c 1.6,0.3 2.8,0.9 3.4,1.9 0.6,1 0.9,2.1 0.7,3.4 -0.2,1.2 -0.7,2.5 -1.6,3.9 -0.9,1.3 -2,2.5 -3.4,3.4 -1.4,1 -2.9,1.7 -4.7,2.1 -1.8,0.4 -3.6,0.4 -5.6,-0.1 -0.4,1.7 -0.5,3.2 -0.2,4.4 0.3,1.2 1,2 2.4,2.2 1.6,0.2 3.1,0 4.6,-0.7 1.5,-0.7 3,-1.5 4.3,-2.5 1.5,-1.1 2.9,-2.5 4.3,-4 0.4,0.1 0.8,0.1 1.2,0.2 -1.6,2.2 -3.3,4 -5.2,5.5 -0.8,0.7 -1.7,1.3 -2.6,2 -0.9,0.6 -1.9,1.1 -2.9,1.6 -1,0.4 -2.1,0.7 -3.2,0.9 -1.1,0.2 -2.3,0.2 -3.4,0 -2.2,-0.3 -3.8,-1.2 -4.8,-2.6 -1,-1.4 -1.6,-3.1 -1.6,-5 0,-1.9 0.4,-3.9 1.3,-6.1 0.9,-2.1 2.1,-4.1 3.8,-5.8 1.7,-1.7 3.6,-3 6,-4 1.9,-0.9 4.4,-1.1 7.2,-0.7 z m -1.9,1.7 c -0.6,-0.1 -1.4,0.1 -2.2,0.8 -0.8,0.6 -1.7,1.4 -2.5,2.5 -0.8,1 -1.6,2.2 -2.3,3.5 -0.7,1.3 -1.3,2.6 -1.8,4 0.8,0.4 1.6,0.4 2.5,0.1 0.9,-0.4 1.7,-0.9 2.5,-1.7 0.8,-0.8 1.6,-1.7 2.3,-2.7 0.7,-1 1.2,-2 1.6,-2.9 0.4,-0.9 0.6,-1.7 0.6,-2.4 0,-0.8 -0.2,-1.2 -0.7,-1.2 z"
           id="path11218" />
        <path
           fill="#ffffff"
           d="m 227.1,28.3 c -0.6,0.9 -1.1,1.9 -1.7,2.8 2.4,-0.8 4.8,-1.6 7.2,-2.4 -0.7,1.5 -1,2.8 -0.9,3.7 0.1,0.9 0.4,1.7 0.8,2.2 0.5,0.5 1.1,0.8 1.9,0.9 0.8,0.1 1.6,0.1 2.4,0 -2,1.3 -3.8,2.2 -5.4,2.7 -1.6,0.5 -3,0.7 -4.2,0.5 -1.1,-0.2 -2,-0.7 -2.6,-1.5 -0.6,-0.9 -0.8,-2 -0.7,-3.5 -3.5,6.2 -6.9,12.4 -10.3,18.6 -2.1,-0.4 -4.2,-0.8 -6.3,-1.2 4.2,-8.1 8.5,-16.2 13,-24.2 2.3,0.4 4.6,0.9 6.8,1.4 z"
           id="path11220" />
        <path
           fill="#ffffff"
           d="m 235.1,47.5 c -0.5,0.8 -0.8,1.4 -1.1,1.9 -0.2,0.5 -0.3,0.9 -0.3,1.2 0,0.3 0.1,0.5 0.2,0.7 0.1,0.2 0.3,0.3 0.5,0.4 0.4,0.2 1,0.2 2,0 0.9,-0.3 1.8,-0.9 2.7,-1.9 0.3,0.1 0.7,0.2 1,0.3 -0.9,1.2 -1.9,2.2 -2.9,3 -1,0.8 -1.9,1.3 -2.9,1.8 -0.9,0.4 -1.8,0.6 -2.7,0.7 -0.8,0.1 -1.6,0 -2.2,-0.1 -0.6,-0.1 -1.1,-0.4 -1.6,-0.8 -0.5,-0.4 -0.8,-0.9 -1.1,-1.6 -0.2,-0.7 -0.2,-1.6 0.1,-2.8 0.3,-1.1 0.9,-2.5 1.9,-4.2 3.1,-5.1 6.2,-10.2 9.4,-15.2 2.2,0.5 4.4,1.1 6.6,1.7 -1.5,2.3 -2.8,4.4 -4.1,6.3 -1.1,1.7 -2.2,3.4 -3.2,5.1 -1,1.5 -1.8,2.7 -2.3,3.5 z m 19.2,-26.8 c -0.4,1.5 -0.8,3 -1.2,4.4 -4.5,-0.2 -8.9,-0.3 -13.3,-0.3 0,-0.3 0,-0.7 -0.1,-1 4.8,-1.1 9.7,-2.1 14.6,-3.1 z"
           id="path11222" />
        <path
           fill="#ffffff"
           d="m 268.4,40 c -1.5,2.1 -2.9,4 -4.3,5.8 -1.1,1.6 -2.2,3.1 -3.3,4.7 -1.1,1.5 -1.9,2.7 -2.5,3.5 -1.1,1.5 -1.6,2.5 -1.6,3 0,0.5 0.2,0.9 0.5,1.1 0.5,0.3 1.2,0.3 2.1,0.1 0.9,-0.2 1.9,-0.8 2.8,-1.7 0.3,0.1 0.6,0.2 1,0.3 -1,1.2 -2,2.1 -3,2.8 -1,0.7 -2,1.2 -3,1.6 -1,0.3 -1.9,0.5 -2.7,0.6 -0.8,0 -1.5,0 -2.1,-0.2 -0.8,-0.2 -1.5,-0.7 -2.1,-1.4 -0.6,-0.7 -0.7,-1.7 -0.4,-3.2 -1.2,0.7 -2.6,1.2 -4.1,1.5 -1.5,0.3 -2.8,0.3 -4.1,0 -0.9,-0.2 -1.5,-0.7 -2,-1.4 -0.5,-0.7 -0.6,-1.6 -0.4,-2.8 0.2,-1.2 0.7,-2.6 1.5,-4.2 0.8,-1.6 2.1,-3.4 3.8,-5.4 1.7,-2 3.7,-3.7 5.9,-4.8 2.2,-1.2 4.4,-1.9 6.6,-2.3 2.2,-0.3 4.4,-0.3 6.4,0.1 2,0.3 3.7,1.1 5,2.3 z m -17.6,14.1 c 0.3,-0.6 0.8,-1.3 1.3,-2 2.6,-3.9 5.3,-7.8 8,-11.7 -0.3,-0.2 -0.5,-0.3 -0.8,-0.4 -0.8,-0.2 -1.7,-0.1 -2.7,0.5 -1.1,0.6 -2.1,1.4 -3.2,2.4 -1.1,1 -2.1,2.2 -3.1,3.5 -1,1.3 -1.8,2.5 -2.4,3.7 -0.6,1.2 -1,2.2 -1.1,3 -0.1,0.8 0.1,1.4 0.7,1.5 0.5,0.1 1,0.1 1.7,-0.1 0.6,-0.1 1.1,-0.3 1.6,-0.4 z"
           id="path11224" />
      </g>
      <g
         id="g11516"
         transform="matrix(0.26458333,0,0,0.26458333,125.02507,180.2096)">
        <path
           fill="#ffffff"
           d="m 187,120.1 c 0,0 0,0 0,0 -2,1 -4,2 -7.3,2.7 -1.9,0.4 -16.1,2.7 -18.3,2.7 4.2,-0.6 8.1,-2.9 11.2,-5.8 2.1,-1.9 2.8,-5.3 3.8,-8.2 0.5,-1.5 1,-2.8 2,-3.9 0,0 0,0 0,-0.1 0,0 0,0 0,0 1.4,-1.4 3.3,-2.3 5.5,-2.3 4.2,0 7.7,3.4 7.7,7.7 0.1,3.3 -1.9,5.8 -4.6,7.2"
           id="path11228" />
        <path
           fill="#ffffff"
           d="m 95.8,120.1 c 0,0 0,0 0,0 2,1 4,2 7.3,2.7 1.9,0.4 16.1,2.7 18.3,2.7 -4.2,-0.6 -8.1,-2.9 -11.2,-5.8 -2.1,-1.9 -2.8,-5.3 -3.8,-8.2 -0.5,-1.5 -1,-2.8 -2,-3.9 0,0 0,0 0,-0.1 0,0 0,0 0,0 -1.4,-1.4 -3.3,-2.3 -5.5,-2.3 -4.2,0 -7.7,3.4 -7.7,7.7 -0.1,3.3 1.9,5.8 4.6,7.2"
           id="path11230" />
        <path
           fill="#ffffff"
           d="m 103.2,126.2 c 3,0.6 6.9,2 12.5,2.4 -6.8,0 -33.5,0.1 -34.2,0 -1.3,-0.2 -2.3,-0.5 -2.9,-1.1 -0.9,-0.9 -1.5,-2.2 -1.5,-3.6 0,-2.8 2.7,-5.1 5.1,-5.1 6,0 11.8,5.5 21,7.4"
           id="path11232" />
        <path
           fill="#ffffff"
           d="m 62.3,126.8 c 2.1,0.4 4.8,1.4 8.7,1.7 -4.8,0 -23.4,0.1 -23.9,0 -0.9,-0.1 -1.6,-0.4 -2,-0.8 -0.7,-0.6 -1.1,-1.5 -1.1,-2.5 0,-2 1.9,-3.6 3.6,-3.6 4.2,0 8.2,3.9 14.7,5.2"
           id="path11234" />
        <path
           fill="#ffffff"
           d="m 180.3,126.2 c -3,0.6 -6.9,2 -12.5,2.4 6.8,0 33.5,0.1 34.2,0 1.3,-0.2 2.3,-0.5 2.9,-1.1 0.9,-0.9 1.5,-2.2 1.5,-3.6 0,-2.8 -2.7,-5.1 -5.1,-5.1 -6.1,0 -11.8,5.5 -21,7.4"
           id="path11236" />
        <path
           fill="#ffffff"
           d="m 221.2,126.8 c -2.1,0.4 -4.8,1.4 -8.7,1.7 4.8,0 23.4,0.1 23.9,0 0.9,-0.1 1.6,-0.4 2,-0.8 0.7,-0.6 1.1,-1.5 1.1,-2.5 0,-2 -1.9,-3.6 -3.6,-3.6 -4.3,0 -8.3,3.9 -14.7,5.2"
           id="path11238" />
        <path
           fill="#ffffff"
           d="m 139.6,101 c -5.9,-12.7 -19.7,-13.6 -22.5,-18.2 -2.9,-4.6 0.1,-9.7 4.2,-11 3.1,-0.9 6,0.7 8.1,3.4 0,0 0,0 0,0 1.5,2 2.9,4 4.4,7.6 0.9,2 6.6,17.9 7.2,20.4 -0.3,-0.7 -1.4,-2.2 -1.4,-2.2"
           id="path11240" />
        <path
           fill="#ffffff"
           d="m 142.4,101 v 0 c 5.9,-12.7 19.6,-13.6 22.5,-18.2 2.9,-4.6 -0.1,-9.7 -4.2,-11 -3.1,-0.9 -6,0.7 -8.1,3.4 0,0 0,0 0,0 -1.5,2 -2.9,4 -4.4,7.6 -0.9,2 -6.6,17.9 -7.2,20.4 0.2,-0.7 0.7,-1.4 1.4,-2.2"
           id="path11242" />
        <path
           fill="#ffffff"
           d="m 127.7,63.1 c 0,-1.3 -1,-2.3 -2.3,-2.3 -1.3,0 -2.3,1 -2.3,2.3 0,1.3 1,2.3 2.3,2.3 1.3,-0.1 2.3,-1.1 2.3,-2.3"
           id="path11244" />
        <path
           fill="#ffffff"
           d="m 123,65.8 c 0,-0.5 -0.4,-1 -1,-1 -0.5,0 -1,0.4 -1,1 0,0.5 0.4,1 1,1 0.5,0 1,-0.5 1,-1"
           id="path11246" />
        <path
           fill="#ffffff"
           d="m 129.8,60.8 c 0,-0.5 -0.4,-1 -1,-1 -0.5,0 -1,0.4 -1,1 0,0.5 0.4,1 1,1 0.6,0 1,-0.5 1,-1"
           id="path11248" />
        <path
           fill="#ffffff"
           d="m 153.9,63.1 c 0,-1.3 1,-2.3 2.3,-2.3 1.3,0 2.3,1 2.3,2.3 0,1.3 -1,2.3 -2.3,2.3 -1.3,-0.1 -2.3,-1.1 -2.3,-2.3"
           id="path11250" />
        <path
           fill="#ffffff"
           d="m 158.7,65.8 c 0,-0.5 0.4,-1 1,-1 0.5,0 1,0.4 1,1 0,0.5 -0.4,1 -1,1 -0.6,0 -1,-0.5 -1,-1"
           id="path11252" />
        <path
           fill="#ffffff"
           d="m 151.8,60.8 c 0,-0.5 0.4,-1 1,-1 0.5,0 1,0.4 1,1 0,0.5 -0.4,1 -1,1 -0.6,0 -1,-0.5 -1,-1"
           id="path11254" />
        <path
           fill="#ffffff"
           d="m 77.3,106.1 c 0,-1.1 -0.9,-1.9 -1.9,-1.9 -1.1,0 -1.9,0.9 -1.9,1.9 0,1.1 0.9,1.9 1.9,1.9 1.1,0 1.9,-0.9 1.9,-1.9"
           id="path11256" />
        <path
           fill="#ffffff"
           d="m 84.7,103.8 c 0,-1.3 -1,-2.3 -2.3,-2.3 -1.3,0 -2.3,1 -2.3,2.3 0,1.3 1,2.3 2.3,2.3 1.3,0 2.3,-1.1 2.3,-2.3"
           id="path11258" />
        <path
           fill="#ffffff"
           d="m 71.8,108.4 c 0,-0.9 -0.7,-1.6 -1.6,-1.6 -0.9,0 -1.6,0.7 -1.6,1.6 0,0.9 0.7,1.6 1.6,1.6 0.9,0 1.6,-0.7 1.6,-1.6"
           id="path11260" />
        <path
           fill="#ffffff"
           d="m 67.3,110.7 c 0,-0.7 -0.6,-1.3 -1.3,-1.3 -0.7,0 -1.3,0.6 -1.3,1.3 0,0.7 0.6,1.3 1.3,1.3 0.7,0 1.3,-0.6 1.3,-1.3"
           id="path11262" />
        <path
           fill="#ffffff"
           d="m 64,113 c 0,-0.5 -0.4,-1 -1,-1 -0.5,0 -1,0.4 -1,1 0,0.5 0.4,1 1,1 0.5,-0.1 1,-0.5 1,-1"
           id="path11264" />
        <path
           fill="#ffffff"
           d="m 61.5,115.1 c 0,-0.4 -0.4,-0.7 -0.9,-0.7 -0.4,0 -0.7,0.4 -0.7,0.9 0,0.4 0.4,0.7 0.9,0.7 0.5,-0.1 0.8,-0.5 0.7,-0.9"
           id="path11266" />
        <path
           fill="#ffffff"
           d="m 206.7,106.1 c 0,-1.1 0.9,-1.9 1.9,-1.9 1.1,0 1.9,0.9 1.9,1.9 0,1.1 -0.9,1.9 -1.9,1.9 -1.1,0 -1.9,-0.9 -1.9,-1.9"
           id="path11268" />
        <path
           fill="#ffffff"
           d="m 199.3,103.8 c 0,-1.3 1,-2.3 2.3,-2.3 1.3,0 2.3,1 2.3,2.3 0,1.3 -1,2.3 -2.3,2.3 -1.3,0 -2.3,-1.1 -2.3,-2.3"
           id="path11270" />
        <path
           fill="#ffffff"
           d="m 212.2,108.4 c 0,-0.9 0.7,-1.6 1.6,-1.6 0.9,0 1.6,0.7 1.6,1.6 0,0.9 -0.7,1.6 -1.6,1.6 -0.9,0 -1.6,-0.7 -1.6,-1.6"
           id="path11272" />
        <path
           fill="#ffffff"
           d="m 216.7,110.7 c 0,-0.7 0.6,-1.3 1.3,-1.3 0.7,0 1.3,0.6 1.3,1.3 0,0.7 -0.6,1.3 -1.3,1.3 -0.7,0 -1.3,-0.6 -1.3,-1.3"
           id="path11274" />
        <path
           fill="#ffffff"
           d="m 220,113 c 0,-0.5 0.4,-1 1,-1 0.5,0 1,0.4 1,1 0,0.5 -0.4,1 -1,1 -0.6,-0.1 -1,-0.5 -1,-1"
           id="path11276" />
        <path
           fill="#ffffff"
           d="m 222.5,115.1 c 0,-0.4 0.4,-0.7 0.9,-0.7 0.4,0 0.7,0.4 0.7,0.9 0,0.4 -0.4,0.7 -0.9,0.7 -0.5,-0.1 -0.8,-0.5 -0.7,-0.9"
           id="path11278" />
        <path
           fill="#ffffff"
           d="m 224.7,117.4 c 0,-0.3 0.3,-0.6 0.6,-0.6 0.3,0 0.6,0.3 0.6,0.6 0,0.3 -0.3,0.6 -0.6,0.6 -0.3,0.1 -0.6,-0.2 -0.6,-0.6"
           id="path11280" />
        <path
           fill="#ffffff"
           d="m 148.8,72.8 v 0 L 141.2,96.7 133,74 c -0.2,-0.4 -0.4,-0.9 -0.5,-1.3 l -0.1,-0.3 v 0 c -0.1,-0.5 -0.1,-0.9 -0.1,-1.4 0,-4.2 3.7,-7.6 8.3,-7.6 4.6,0 8.3,3.4 8.3,7.6 0.1,0.6 0,1.2 -0.1,1.8"
           id="path11282" />
        <path
           fill="#ffffff"
           d="m 186.1,92.2 v 0 l -10.1,4.3 5.2,-9.2 c 0.1,-0.2 0.2,-0.4 0.3,-0.5 l 0.1,-0.1 v 0 c 0.1,-0.2 0.3,-0.3 0.4,-0.4 1.4,-1.2 3.6,-0.9 4.9,0.6 1.3,1.5 1.2,3.8 -0.2,5 -0.1,0.1 -0.4,0.2 -0.6,0.3"
           id="path11284" />
        <path
           fill="#ffffff"
           d="m 186.5,102.4 v 0 l -9.9,-4.8 10.4,-2.2 c 0.2,-0.1 0.4,-0.1 0.6,-0.1 h 0.1 v 0 c 0.2,0 0.4,0 0.6,0 1.8,0.3 3.1,2.1 2.8,4.1 -0.3,2 -2,3.4 -3.8,3.2 -0.2,0 -0.5,-0.1 -0.8,-0.2"
           id="path11286" />
        <path
           fill="#ffffff"
           d="m 177.3,85.5 v 0 l -2.2,10.8 -4.6,-9.5 c -0.1,-0.2 -0.2,-0.4 -0.3,-0.6 l -0.1,-0.1 v 0 C 170,85.9 170,85.7 170,85.5 c -0.2,-1.8 1.3,-3.5 3.3,-3.7 2,-0.2 3.8,1.1 4,2.9 0.1,0.3 0,0.5 0,0.8"
           id="path11288" />
        <path
           fill="#ffffff"
           d="m 96.1,91.3 v 0 l 9.8,5 -4.5,-9.6 c -0.1,-0.2 -0.2,-0.4 -0.3,-0.6 L 101,86 v 0 c -0.1,-0.2 -0.2,-0.3 -0.4,-0.5 -1.3,-1.3 -3.5,-1.2 -5,0.2 -1.4,1.4 -1.5,3.7 -0.2,5 0.3,0.3 0.5,0.4 0.7,0.6"
           id="path11290" />
        <path
           fill="#ffffff"
           d="m 94.9,101.4 v 0 l 10.2,-4 -10.1,-3 c -0.2,-0.1 -0.4,-0.1 -0.6,-0.2 h -0.1 v 0 c -0.2,0 -0.4,0 -0.6,0 -1.8,0.1 -3.2,1.8 -3.1,3.9 0.1,2 1.7,3.6 3.6,3.4 0.2,0 0.5,0 0.7,-0.1"
           id="path11292" />
        <path
           fill="#ffffff"
           d="m 105.4,85.2 v 0 l 1.4,10.9 5.3,-9.2 c 0.1,-0.2 0.2,-0.3 0.3,-0.5 l 0.1,-0.1 v 0 c 0.1,-0.2 0.1,-0.4 0.2,-0.6 0.3,-1.8 -1,-3.6 -3,-4 -2,-0.4 -3.9,0.8 -4.2,2.6 -0.1,0.4 -0.1,0.7 -0.1,0.9"
           id="path11294" />
        <path
           fill="#ffffff"
           d="m 186.1,212.4 c 0,0 0,0 0,0 -2,-1 -4,-2 -7.3,-2.7 -1.9,-0.4 -16.1,-2.7 -18.3,-2.7 4.2,0.6 8.1,2.9 11.2,5.8 2.1,1.9 2.8,5.3 3.8,8.2 0.5,1.5 1,2.8 2,3.9 0,0 0,0 0,0.1 0,0 0,0 0,0 1.4,1.4 3.3,2.3 5.5,2.3 4.2,0 7.7,-3.4 7.7,-7.7 0.2,-3.3 -1.8,-5.8 -4.6,-7.2"
           id="path11296" />
        <path
           fill="#ffffff"
           d="m 95.8,212.4 c 0,0 0,0 0,0 2,-1 4,-2 7.3,-2.7 1.9,-0.4 16.1,-2.7 18.3,-2.7 -4.2,0.6 -8.1,2.9 -11.2,5.8 -2.1,1.9 -2.8,5.3 -3.8,8.2 -0.5,1.5 -1,2.8 -2,3.9 0,0 0,0 0,0.1 0,0 0,0 0,0 -1.4,1.4 -3.3,2.3 -5.5,2.3 -4.2,0 -7.7,-3.4 -7.7,-7.7 -0.1,-3.3 1.9,-5.8 4.6,-7.2"
           id="path11298" />
        <path
           fill="#ffffff"
           d="m 103.2,206.3 c 3,-0.6 6.9,-2 12.5,-2.4 -6.8,0 -33.5,-0.1 -34.2,0 -1.3,0.2 -2.3,0.5 -2.9,1.1 -0.9,0.9 -1.5,2.2 -1.5,3.6 0,2.8 2.7,5.1 5.1,5.1 6,0 11.8,-5.6 21,-7.4"
           id="path11300" />
        <path
           fill="#ffffff"
           d="m 62.3,205.6 c 2.1,-0.4 4.8,-1.4 8.7,-1.7 -4.8,0 -23.4,-0.1 -23.9,0 -0.9,0.1 -1.6,0.4 -2,0.8 -0.7,0.6 -1.1,1.5 -1.1,2.5 0,2 1.9,3.6 3.6,3.6 4.2,0 8.2,-3.9 14.7,-5.2"
           id="path11302" />
        <path
           fill="#ffffff"
           d="m 180.3,206.3 c -3,-0.6 -6.9,-2 -12.5,-2.4 6.8,0 33.5,-0.1 34.2,0 1.3,0.2 2.3,0.5 2.9,1.1 0.9,0.9 1.5,2.2 1.5,3.6 0,2.8 -2.7,5.1 -5.1,5.1 -6.1,0 -11.8,-5.6 -21,-7.4"
           id="path11304" />
        <path
           fill="#ffffff"
           d="m 221.2,205.6 c -2.1,-0.4 -4.8,-1.4 -8.7,-1.7 4.8,0 23.4,-0.1 23.9,0 0.9,0.1 1.6,0.4 2,0.8 0.7,0.6 1.1,1.5 1.1,2.5 0,2 -1.9,3.6 -3.6,3.6 -4.3,0 -8.3,-3.9 -14.7,-5.2"
           id="path11306" />
        <path
           fill="#ffffff"
           d="m 139.6,231.5 c -5.9,12.7 -19.7,13.6 -22.5,18.2 -2.9,4.6 0.1,9.7 4.2,11 3.1,0.9 6,-0.7 8.1,-3.4 0,0 0,0 0,0 1.5,-2 2.9,-4 4.4,-7.6 0.9,-2 6.6,-17.9 7.2,-20.4 -0.3,0.6 -1.4,2.2 -1.4,2.2"
           id="path11308" />
        <path
           fill="#ffffff"
           d="m 142.4,231.5 v 0 c 5.9,12.7 19.6,13.6 22.5,18.2 2.9,4.6 -0.1,9.7 -4.2,11 -3.1,0.9 -6,-0.7 -8.1,-3.4 0,0 0,0 0,0 -1.5,-2 -2.9,-4 -4.4,-7.6 -0.9,-2 -6.6,-17.9 -7.2,-20.4 0.2,0.6 0.7,1.4 1.4,2.2"
           id="path11310" />
        <path
           fill="#ffffff"
           d="m 127.7,269.4 c 0,1.3 -1,2.3 -2.3,2.3 -1.3,0 -2.3,-1 -2.3,-2.3 0,-1.3 1,-2.3 2.3,-2.3 1.3,0 2.3,1.1 2.3,2.3"
           id="path11312" />
        <path
           fill="#ffffff"
           d="m 123,266.7 c 0,0.5 -0.4,1 -1,1 -0.5,0 -1,-0.4 -1,-1 0,-0.5 0.4,-1 1,-1 0.5,0 1,0.4 1,1"
           id="path11314" />
        <path
           fill="#ffffff"
           d="m 129.8,271.7 c 0,0.5 -0.4,1 -1,1 -0.5,0 -1,-0.4 -1,-1 0,-0.5 0.4,-1 1,-1 0.6,0 1,0.4 1,1"
           id="path11316" />
        <path
           fill="#ffffff"
           d="m 153.9,269.4 c 0,1.3 1,2.3 2.3,2.3 1.3,0 2.3,-1 2.3,-2.3 0,-1.3 -1,-2.3 -2.3,-2.3 -1.3,0 -2.3,1.1 -2.3,2.3"
           id="path11318" />
        <path
           fill="#ffffff"
           d="m 158.7,266.7 c 0,0.5 0.4,1 1,1 0.5,0 1,-0.4 1,-1 0,-0.5 -0.4,-1 -1,-1 -0.6,0 -1,0.4 -1,1"
           id="path11320" />
        <path
           fill="#ffffff"
           d="m 151.8,271.7 c 0,0.5 0.4,1 1,1 0.5,0 1,-0.4 1,-1 0,-0.5 -0.4,-1 -1,-1 -0.6,0 -1,0.4 -1,1"
           id="path11322" />
        <path
           fill="#ffffff"
           d="m 77.3,226.4 c 0,1.1 -0.9,1.9 -1.9,1.9 -1.1,0 -1.9,-0.9 -1.9,-1.9 0,-1.1 0.9,-1.9 1.9,-1.9 1.1,0 1.9,0.8 1.9,1.9"
           id="path11324" />
        <path
           fill="#ffffff"
           d="m 84.7,228.7 c 0,1.3 -1,2.3 -2.3,2.3 -1.3,0 -2.3,-1 -2.3,-2.3 0,-1.3 1,-2.3 2.3,-2.3 1.3,0 2.3,1 2.3,2.3"
           id="path11326" />
        <path
           fill="#ffffff"
           d="m 71.8,224.1 c 0,0.9 -0.7,1.6 -1.6,1.6 -0.9,0 -1.6,-0.7 -1.6,-1.6 0,-0.9 0.7,-1.6 1.6,-1.6 0.9,-0.1 1.6,0.7 1.6,1.6"
           id="path11328" />
        <path
           fill="#ffffff"
           d="m 67.3,221.8 c 0,0.7 -0.6,1.3 -1.3,1.3 -0.7,0 -1.3,-0.6 -1.3,-1.3 0,-0.7 0.6,-1.3 1.3,-1.3 0.7,0 1.3,0.6 1.3,1.3"
           id="path11330" />
        <path
           fill="#ffffff"
           d="m 64,219.5 c 0,0.5 -0.4,1 -1,1 -0.5,0 -1,-0.4 -1,-1 0,-0.5 0.4,-1 1,-1 0.5,0 1,0.5 1,1"
           id="path11332" />
        <path
           fill="#ffffff"
           d="m 61.5,217.4 c 0,0.4 -0.4,0.7 -0.9,0.7 -0.4,0 -0.7,-0.4 -0.7,-0.9 0,-0.4 0.4,-0.7 0.9,-0.7 0.5,0.1 0.8,0.5 0.7,0.9"
           id="path11334" />
        <path
           fill="#ffffff"
           d="m 206.7,226.4 c 0,1.1 0.9,1.9 1.9,1.9 1.1,0 1.9,-0.9 1.9,-1.9 0,-1.1 -0.9,-1.9 -1.9,-1.9 -1.1,0 -1.9,0.8 -1.9,1.9"
           id="path11336" />
        <path
           fill="#ffffff"
           d="m 199.3,228.7 c 0,1.3 1,2.3 2.3,2.3 1.3,0 2.3,-1 2.3,-2.3 0,-1.3 -1,-2.3 -2.3,-2.3 -1.3,0 -2.3,1 -2.3,2.3"
           id="path11338" />
        <path
           fill="#ffffff"
           d="m 212.2,224.1 c 0,0.9 0.7,1.6 1.6,1.6 0.9,0 1.6,-0.7 1.6,-1.6 0,-0.9 -0.7,-1.6 -1.6,-1.6 -0.9,-0.1 -1.6,0.7 -1.6,1.6"
           id="path11340" />
        <path
           fill="#ffffff"
           d="m 216.7,221.8 c 0,0.7 0.6,1.3 1.3,1.3 0.7,0 1.3,-0.6 1.3,-1.3 0,-0.7 -0.6,-1.3 -1.3,-1.3 -0.7,0 -1.3,0.6 -1.3,1.3"
           id="path11342" />
        <path
           fill="#ffffff"
           d="m 220,219.5 c 0,0.5 0.4,1 1,1 0.5,0 1,-0.4 1,-1 0,-0.5 -0.4,-1 -1,-1 -0.6,0 -1,0.5 -1,1"
           id="path11344" />
        <path
           fill="#ffffff"
           d="m 148.8,259.7 v 0 l -7.6,-23.9 -8.1,22.8 c -0.2,0.4 -0.4,0.9 -0.5,1.3 l -0.1,0.3 v 0 c -0.1,0.5 -0.1,0.9 -0.1,1.4 0,4.2 3.7,7.6 8.3,7.6 4.6,0 8.3,-3.4 8.3,-7.6 0,-0.7 -0.1,-1.3 -0.2,-1.9"
           id="path11346" />
        <path
           fill="#ffffff"
           d="m 186.1,240.3 v 0 L 176,236 l 5.2,9.2 c 0.1,0.2 0.2,0.4 0.3,0.5 l 0.1,0.1 v 0 c 0.1,0.2 0.3,0.3 0.4,0.4 1.4,1.2 3.6,0.9 4.9,-0.6 1.3,-1.5 1.2,-3.8 -0.2,-5 -0.1,-0.1 -0.4,-0.2 -0.6,-0.3"
           id="path11348" />
        <path
           fill="#ffffff"
           d="m 186.5,230.1 v 0 l -9.9,4.8 10.4,2.1 c 0.2,0.1 0.4,0.1 0.6,0.1 h 0.1 v 0 c 0.2,0 0.4,0 0.6,0 1.8,-0.3 3.1,-2.1 2.8,-4.1 -0.3,-2 -2,-3.4 -3.8,-3.2 -0.2,0.1 -0.5,0.2 -0.8,0.3"
           id="path11350" />
        <path
           fill="#ffffff"
           d="m 177.7,246.5 v 0 l -3.5,-10.4 -3.4,10 c -0.1,0.2 -0.2,0.4 -0.2,0.6 v 0.1 0 c 0,0.2 -0.1,0.4 -0.1,0.6 0,1.8 1.7,3.3 3.7,3.3 2,0 3.6,-1.5 3.6,-3.4 0,-0.3 0,-0.5 -0.1,-0.8"
           id="path11352" />
        <path
           fill="#ffffff"
           d="m 96.1,241.2 v 0 l 9.8,-5 -4.5,9.6 c -0.1,0.2 -0.2,0.4 -0.3,0.6 l -0.1,0.1 v 0 c -0.1,0.2 -0.2,0.3 -0.4,0.5 -1.3,1.3 -3.5,1.2 -5,-0.2 -1.4,-1.4 -1.5,-3.7 -0.2,-5 0.3,-0.3 0.5,-0.5 0.7,-0.6"
           id="path11354" />
        <path
           fill="#ffffff"
           d="m 94.9,231.1 v 0 l 10.2,4 L 95,238 c -0.2,0.1 -0.4,0.1 -0.6,0.2 h -0.1 v 0 c -0.2,0 -0.4,0 -0.6,0 -1.8,-0.1 -3.2,-1.9 -3.1,-3.9 0.1,-2 1.7,-3.6 3.6,-3.4 0.2,0.1 0.5,0.1 0.7,0.2"
           id="path11356" />
        <path
           fill="#ffffff"
           d="m 105.4,247.2 v 0 l 1.4,-10.9 5.3,9.2 c 0.1,0.2 0.2,0.3 0.3,0.5 l 0.1,0.1 v 0 c 0.1,0.2 0.1,0.4 0.2,0.6 0.3,1.8 -1,3.6 -3,4 -2,0.4 -3.9,-0.8 -4.2,-2.6 -0.1,-0.3 -0.1,-0.6 -0.1,-0.9"
           id="path11358" />
        <path
           fill="#ffffff"
           d="m 165.2,226.5 c 0,0 0,0 0,0 -1,0.5 -2.1,1.1 -3.8,1.4 -1,0.2 -8.5,1.4 -9.7,1.5 2.2,-0.3 4.3,-1.5 6,-3.1 1.1,-1 1.5,-2.8 2,-4.4 0.3,-0.8 0.5,-1.5 1,-2.1 0,0 0,0 0,0 0,0 0,0 0,0 0.7,-0.8 1.8,-1.2 2.9,-1.2 2.2,0 4.1,1.8 4.1,4.1 0,1.7 -1.1,3.1 -2.5,3.8"
           id="path11360" />
        <path
           fill="#ffffff"
           d="m 117.4,226.5 c 0,0 0,0 0,0 1,0.5 2.1,1.1 3.8,1.4 1,0.2 8.5,1.4 9.7,1.5 -2.2,-0.3 -4.3,-1.5 -6,-3.1 -1.1,-1 -1.5,-2.8 -2,-4.4 -0.3,-0.8 -0.5,-1.5 -1,-2.1 0,0 0,0 0,0 0,0 0,0 0,0 -0.7,-0.8 -1.8,-1.2 -2.9,-1.2 -2.2,0 -4.1,1.8 -4.1,4.1 0,1.7 1,3.1 2.5,3.8"
           id="path11362" />
        <path
           fill="#ffffff"
           d="m 141.3,203.8 c -6.3,0 -11.4,5.1 -11.4,11.4 0,6.3 5.1,11.4 11.4,11.4 6.3,0 11.4,-5.1 11.4,-11.4 0,-6.3 -5.1,-11.4 -11.4,-11.4 z m 0,20.6 c -5.1,0 -9.2,-4.1 -9.2,-9.2 0,-5.1 4.1,-9.2 9.2,-9.2 5.1,0 9.2,4.1 9.2,9.2 0,5.1 -4.2,9.2 -9.2,9.2 z"
           id="path11364" />
        <path
           fill="#ffffff"
           d="m 148.3,215.2 c 0,3.9 -3.1,7 -7,7 -3.9,0 -7,-3.1 -7,-7 0,-3.9 3.1,-7 7,-7 3.8,0 7,3.2 7,7"
           id="path11366" />
        <g
           id="g11380">
          <g
             id="g11370">
            <path
               fill="#ffffff"
               d="m 48,153.3 v 0 l 8.7,2.6 -5.1,-7.1 c -0.1,-0.1 -0.2,-0.3 -0.3,-0.4 l -0.1,-0.1 v 0 c -0.1,-0.1 -0.2,-0.2 -0.4,-0.3 -1.3,-0.9 -3,-0.5 -4,0.9 -0.9,1.4 -0.7,3.2 0.6,4 0.2,0.2 0.4,0.3 0.6,0.4"
               id="path11368" />
          </g>
          <g
             id="g11374">
            <path
               fill="#ffffff"
               d="m 48.5,161.7 v 0 l 7.7,-4.7 -8.7,-0.9 c -0.2,0 -0.3,-0.1 -0.5,-0.1 h -0.1 v 0 c -0.2,0 -0.3,0 -0.5,0.1 -1.5,0.4 -2.4,2 -2,3.6 0.4,1.6 1.9,2.6 3.4,2.3 0.3,-0.1 0.5,-0.2 0.7,-0.3"
               id="path11372" />
          </g>
          <g
             id="g11378">
            <path
               fill="#ffffff"
               d="m 54.6,147.1 v 0 l 2.7,8.6 3,-8.2 c 0.1,-0.2 0.1,-0.3 0.2,-0.5 v -0.1 0 c 0,-0.2 0.1,-0.3 0.1,-0.5 0,-1.5 -1.3,-2.8 -3,-2.8 -1.7,0 -3,1.2 -3,2.7 -0.1,0.3 0,0.6 0,0.8"
               id="path11376" />
          </g>
        </g>
        <g
           id="g11394">
          <g
             id="g11384">
            <path
               fill="#ffffff"
               d="m 237.1,159.1 v 0 l -8.7,2.6 5.1,-7.1 c 0.1,-0.1 0.2,-0.3 0.3,-0.4 l 0.1,-0.1 v 0 c 0.1,-0.1 0.2,-0.2 0.4,-0.3 1.3,-0.9 3,-0.5 4,0.9 0.9,1.4 0.7,3.2 -0.6,4 -0.2,0.2 -0.4,0.3 -0.6,0.4"
               id="path11382" />
          </g>
          <g
             id="g11388">
            <path
               fill="#ffffff"
               d="m 236.6,167.4 v 0 l -7.7,-4.7 8.7,-0.9 c 0.2,0 0.3,-0.1 0.5,-0.1 h 0.1 v 0 c 0.2,0 0.3,0 0.5,0.1 1.5,0.4 2.4,2 2,3.6 -0.4,1.6 -1.9,2.6 -3.4,2.3 -0.3,-0.1 -0.5,-0.2 -0.7,-0.3"
               id="path11386" />
          </g>
          <g
             id="g11392">
            <path
               fill="#ffffff"
               d="m 230.5,152.8 v 0 l -2.7,8.6 -3,-8.2 c -0.1,-0.2 -0.1,-0.3 -0.2,-0.5 v -0.1 0 c 0,-0.2 -0.1,-0.3 -0.1,-0.5 0,-1.5 1.3,-2.8 3,-2.8 1.7,0 3,1.2 3,2.7 0.1,0.4 0.1,0.6 0,0.8"
               id="path11390" />
          </g>
        </g>
        <g
           id="g11400">
          <path
             fill="#ffffff"
             d="m 222.8,217.4 c 0,0.4 0.4,0.7 0.9,0.7 0.4,0 0.7,-0.4 0.7,-0.9 0,-0.4 -0.4,-0.7 -0.9,-0.7 -0.4,0.1 -0.7,0.5 -0.7,0.9"
             id="path11396" />
          <path
             fill="#ffffff"
             d="m 225.1,215 c 0,0.3 0.3,0.6 0.6,0.6 0.3,0 0.6,-0.3 0.6,-0.6 0,-0.3 -0.3,-0.6 -0.6,-0.6 -0.4,0 -0.6,0.3 -0.6,0.6"
             id="path11398" />
        </g>
        <g
           id="g11404">
          <path
             fill="#ffffff"
             d="m 232.6,178.7 c 0.7,0 1.4,0.1 2,0.4 0.6,0.3 1.2,0.6 1.6,1.1 0.5,0.5 0.8,1 1.1,1.6 0.3,0.6 0.4,1.3 0.4,2 0,0.7 -0.1,1.4 -0.4,2 -0.3,0.6 -0.6,1.2 -1.1,1.6 -0.5,0.5 -1,0.8 -1.6,1.1 -0.6,0.3 -1.3,0.4 -2,0.4 -0.7,0 -1.4,-0.1 -2,-0.4 -0.6,-0.3 -1.2,-0.6 -1.6,-1.1 -0.5,-0.5 -0.8,-1 -1.1,-1.6 -0.3,-0.6 -0.4,-1.3 -0.4,-2 0,-0.7 0.1,-1.4 0.4,-2 0.3,-0.6 0.6,-1.2 1.1,-1.6 0.5,-0.5 1,-0.8 1.6,-1.1 0.6,-0.3 1.3,-0.4 2,-0.4 z m 0,1.1 c -0.5,0 -1,0.1 -1.5,0.3 -0.5,0.2 -0.9,0.5 -1.2,0.9 -0.3,0.4 -0.6,0.8 -0.8,1.3 -0.2,0.5 -0.3,1 -0.3,1.5 0,0.6 0.1,1.1 0.3,1.6 0.2,0.5 0.5,0.9 0.8,1.3 0.3,0.4 0.8,0.6 1.2,0.9 0.5,0.2 1,0.3 1.5,0.3 0.5,0 1,-0.1 1.5,-0.3 0.5,-0.2 0.9,-0.5 1.2,-0.9 0.3,-0.4 0.6,-0.8 0.8,-1.3 0.2,-0.5 0.3,-1 0.3,-1.6 0,-0.5 -0.1,-1.1 -0.3,-1.5 -0.2,-0.5 -0.5,-0.9 -0.8,-1.3 -0.3,-0.4 -0.8,-0.6 -1.2,-0.9 -0.5,-0.2 -1,-0.3 -1.5,-0.3 z m 1.1,6.9 -0.8,-1.9 c -0.1,-0.2 -0.2,-0.3 -0.3,-0.4 -0.1,-0.1 -0.3,-0.1 -0.5,-0.1 h -0.2 v 2.4 h -1.1 v -5.8 h 1.7 c 0.7,0 1.2,0.1 1.6,0.4 0.4,0.2 0.6,0.7 0.6,1.3 0,0.4 -0.1,0.8 -0.4,1 -0.2,0.2 -0.5,0.4 -0.9,0.4 0.1,0 0.3,0.1 0.4,0.2 0.1,0.1 0.2,0.3 0.4,0.6 l 0.9,1.9 z m -0.2,-4.1 c 0,-0.3 -0.1,-0.5 -0.3,-0.6 -0.2,-0.1 -0.5,-0.2 -0.8,-0.2 h -0.5 v 1.6 h 0.5 c 0.3,0 0.6,-0.1 0.8,-0.2 0.2,-0.1 0.3,-0.3 0.3,-0.6 z"
             id="path11402" />
        </g>
        <g
           id="g11490">
          <path
             fill="#ffffff"
             d="m 134.3,111.1 c 0,0 0.3,-2.1 -0.5,-3.2 0,0 0.5,2.4 -0.2,2.6 0,0 -1.1,-0.3 -2.1,-1.3 0,0 0.3,-1.1 -0.7,-3.1 0,0 0.7,2.1 0,2.6 0,0 -1.4,-0.5 -1.6,-0.8 0,0 -0.7,-2.9 -1.9,-4 0,0 1.5,3.1 0.9,3.7 0,0 -1.5,-0.4 -1.9,-0.8 0,0 -1.2,-2.9 -2,-3.3 0,0 1.3,2.2 1,2.7 0,0 -1.5,-0.5 -1.8,-0.8 -0.3,-0.3 -0.1,-0.1 -0.1,-0.1 0,0 -0.9,-1.6 -1.7,-1.6 0,0 0.5,0.3 0.6,1 0,0 -2,-0.3 -4.4,-1.1 0,0 3.4,1.1 4.2,1.7 0,0 -0.7,1.2 -2.1,1.3 0,0 1.8,0.1 3,-0.8 0,0 0.8,0.1 1.5,0.5 0,0 -0.2,1.5 -2.1,2.5 0,0 2.7,-1 3.4,-1.7 0,0 1.3,0.2 1.8,0.6 0,0 0.8,2 -3.4,3.6 0,0 4.1,-1.3 4.6,-3 0,0 0.9,0.2 1.1,0.8 0,0 0.9,2.7 -3.8,4.4 0,0 4.2,-0.5 5,-3.5 0,0 1,0.2 1.5,1 0,0 0.2,2 -0.9,3.3 0,0 0,0 0.1,0 0,0 0.1,0 0.1,0 0,0 0.1,0 0.2,-0.1 0.2,-0.2 0.4,-0.3 0.7,-0.4 0.5,-0.5 1,-1.2 1.4,-2.2 0,0 0.6,0.2 1.2,0.5 0,-0.1 0.1,-0.2 0.1,-0.3 0,0 0,0 0,-0.1 -0.4,0 -0.9,-0.3 -1.2,-0.6 z"
             id="path11406" />
          <path
             fill="#ffffff"
             d="m 161.2,105.3 c 0.8,-0.6 4.2,-1.7 4.2,-1.7 -2.4,0.8 -4.4,1.1 -4.4,1.1 0.1,-0.7 0.6,-1 0.6,-1 -0.8,0 -1.7,1.6 -1.7,1.6 0,0 0.2,-0.2 -0.1,0.1 -0.3,0.3 -1.8,0.8 -1.8,0.8 -0.3,-0.4 1,-2.7 1,-2.7 -0.8,0.4 -2,3.3 -2,3.3 -0.4,0.4 -1.9,0.8 -1.9,0.8 -0.6,-0.5 0.9,-3.7 0.9,-3.7 -1.2,1.1 -1.9,4 -1.9,4 -0.2,0.3 -1.6,0.8 -1.6,0.8 -0.7,-0.4 0,-2.6 0,-2.6 -1.1,2 -0.7,3.1 -0.7,3.1 -1,1 -2.1,1.3 -2.1,1.3 -0.7,-0.2 -0.2,-2.6 -0.2,-2.6 -0.8,1.1 -0.5,3.2 -0.5,3.2 -0.3,0.3 -0.8,0.6 -1.3,0.9 0.1,0.1 0.2,0.2 0.2,0.4 0.6,-0.3 1.2,-0.5 1.2,-0.5 1.2,3.3 3.9,3.5 3.9,3.5 -2.9,-0.6 -2.5,-4.2 -2.5,-4.2 0.5,-0.9 1.5,-1 1.5,-1 0.8,3 5,3.5 5,3.5 -4.7,-1.7 -3.8,-4.4 -3.8,-4.4 0.2,-0.6 1.1,-0.8 1.1,-0.8 0.5,1.6 4.6,3 4.6,3 -4.2,-1.6 -3.4,-3.6 -3.4,-3.6 0.5,-0.5 1.8,-0.6 1.8,-0.6 0.7,0.7 3.4,1.7 3.4,1.7 -1.9,-1.1 -2.1,-2.5 -2.1,-2.5 0.7,-0.4 1.5,-0.5 1.5,-0.5 1.2,0.9 3,0.8 3,0.8 -1.2,-0.3 -1.9,-1.5 -1.9,-1.5 z"
             id="path11408" />
          <path
             fill="#fcfcfd"
             d="m 153.3,116.9 c -0.2,-0.1 -0.2,-0.3 -0.2,-0.3 0.1,-0.1 0.2,0 0.4,0.1 0.6,0.3 4.1,2.9 4.7,3.8 0,0 0.5,0.6 0.4,0.8 -0.1,0.1 -0.5,0.1 -0.8,-0.2 -1,-1.2 -3.7,-3.7 -4.5,-4.2"
             id="path11410" />
          <path
             fill="#ffffff"
             d="m 147.4,110.5 c -0.2,-0.3 -0.3,-0.6 -0.4,-0.9 -0.7,-1.7 -1.6,-2.5 -2.7,-2.5 -0.4,0 -0.8,0.1 -1,0.2 -0.1,-0.8 0,-2.3 0.1,-3.2 l 0.1,-0.6 -3.3,-0.8 0.3,4.5 c 0,0.1 0,0.2 0,0.3 -0.3,-0.2 -0.7,-0.2 -1,-0.2 -1.9,0 -2.9,2.4 -3,2.7 -8.5,17.3 2.8,26.7 3.9,27.6 0.7,0.9 1.5,1.1 2,1.1 1.1,0 1.9,-0.8 1.9,-0.9 10.9,-10.3 5.2,-22.7 3.1,-27.3 z m -2.2,24.9 c -1,1.2 -1.6,2.6 -2.6,2.6 -0.1,0 -0.2,0 -0.3,0 -0.1,0 -0.2,0 -0.3,0 -0.9,0 -1.6,-1.5 -2.6,-2.5 -0.9,-0.9 -2.5,-3.7 -2.5,-3.7 -5.4,-13 0.1,-17.7 1.6,-21.3 1.2,-2.9 2.7,-2.7 3.3,-2.5 0.6,-0.2 2.1,-0.5 3.4,2.4 1.6,3.5 6.5,9.3 2.4,21.2 -0.1,0 -1.4,2.6 -2.4,3.8 z"
             id="path11412" />
          <g
             id="g11486">
            <path
               fill="#fefeff"
               d="m 142.8,110 c 0,0.3 -0.5,0.6 -1.1,0.6 -0.6,0 -1.1,-0.2 -1.1,-0.5 0,-0.3 0.5,-0.6 1.1,-0.6 0.6,-0.1 1.1,0.2 1.1,0.5"
               id="path11414" />
            <path
               fill="#fefeff"
               d="m 143,135.3 c 0,0.3 -0.5,0.6 -1.1,0.6 -0.6,0 -1.1,-0.2 -1.1,-0.5 0,-0.3 0.5,-0.6 1.1,-0.6 0.6,0 1.1,0.2 1.1,0.5"
               id="path11416" />
            <path
               fill="#fefeff"
               d="m 143.1,111.6 c 0,0.4 -0.6,0.7 -1.4,0.7 -0.8,0 -1.4,-0.3 -1.4,-0.6 0,-0.4 0.6,-0.7 1.4,-0.7 0.7,0 1.4,0.3 1.4,0.6"
               id="path11418" />
            <path
               fill="#fefeff"
               d="m 143.4,133.7 c 0,0.4 -0.6,0.7 -1.4,0.7 -0.8,0 -1.4,-0.3 -1.4,-0.6 0,-0.4 0.6,-0.7 1.4,-0.7 0.8,-0.1 1.4,0.2 1.4,0.6"
               id="path11420" />
            <path
               fill="#fefeff"
               d="m 143.3,113.6 c 0,0.5 -0.7,0.9 -1.5,0.9 -0.9,0 -1.6,-0.3 -1.6,-0.8 0,-0.5 0.7,-0.9 1.5,-0.9 0.9,-0.1 1.6,0.3 1.6,0.8"
               id="path11422" />
            <path
               fill="#fefeff"
               d="m 143.5,131.9 c 0,0.5 -0.7,0.9 -1.5,0.9 -0.9,0 -1.6,-0.3 -1.6,-0.8 0,-0.5 0.7,-0.9 1.5,-0.9 0.9,0 1.6,0.3 1.6,0.8"
               id="path11424" />
            <path
               fill="#fefeff"
               d="m 143.5,129.9 c 0,0.5 -0.7,0.9 -1.5,0.9 -0.9,0 -1.6,-0.3 -1.6,-0.8 0,-0.5 0.7,-0.9 1.5,-0.9 0.9,0 1.6,0.3 1.6,0.8"
               id="path11426" />
            <path
               fill="#fefeff"
               d="m 143.6,115.9 c 0,0.6 -0.8,1.1 -1.9,1.1 -1.1,0 -1.9,-0.4 -1.9,-1 0,-0.6 0.8,-1.1 1.9,-1.1 1,0 1.9,0.4 1.9,1"
               id="path11428" />
            <path
               fill="#fefeff"
               d="m 143.7,127.6 c 0,0.6 -0.8,1.1 -1.9,1.1 -1.1,0 -1.9,-0.4 -1.9,-1 0,-0.6 0.8,-1.1 1.9,-1.1 1,-0.1 1.9,0.4 1.9,1"
               id="path11430" />
            <path
               fill="#fefeff"
               d="m 144.1,118.6 c 0,0.7 -1,1.3 -2.3,1.4 -1.3,0 -2.4,-0.5 -2.4,-1.2 0,-0.7 1,-1.3 2.3,-1.4 1.4,0 2.4,0.5 2.4,1.2"
               id="path11432" />
            <path
               fill="#fefeff"
               d="m 144.2,124.9 c 0,0.7 -1,1.3 -2.3,1.4 -1.3,0 -2.4,-0.5 -2.4,-1.2 0,-0.7 1,-1.3 2.3,-1.4 1.4,0 2.4,0.5 2.4,1.2"
               id="path11434" />
            <path
               fill="#fefeff"
               d="m 144.6,121.8 c 0,0.8 -1.2,1.5 -2.7,1.6 -1.5,0.1 -2.7,-0.6 -2.8,-1.4 0,-0.8 1.2,-1.5 2.7,-1.6 1.5,0 2.8,0.6 2.8,1.4"
               id="path11436" />
            <path
               fill="#fefeff"
               d="m 140.6,110.4 c 0.1,0.2 -0.1,0.5 -0.5,0.7 -0.4,0.2 -0.8,0.2 -0.9,0 -0.1,-0.2 0.1,-0.5 0.5,-0.7 0.4,-0.2 0.8,-0.2 0.9,0"
               id="path11438" />
            <path
               fill="#fefeff"
               d="m 140.6,133.3 c 0,0.3 -0.5,0.5 -1,0.4 -0.5,-0.1 -0.8,-0.4 -0.8,-0.7 0,-0.3 0.5,-0.5 1,-0.4 0.5,0.1 0.9,0.4 0.8,0.7"
               id="path11440" />
            <path
               fill="#fefeff"
               d="m 140.2,111.6 c 0.1,0.2 -0.1,0.6 -0.6,0.8 -0.4,0.2 -0.9,0.2 -1,0 -0.1,-0.2 0.1,-0.6 0.6,-0.8 0.4,-0.2 0.9,-0.2 1,0"
               id="path11442" />
            <path
               fill="#fefeff"
               d="m 140.3,131.7 c 0,0.4 -0.6,0.7 -1.3,0.7 -0.7,0 -1.2,-0.4 -1.2,-0.8 0,-0.4 0.6,-0.7 1.3,-0.7 0.7,0.1 1.2,0.4 1.2,0.8"
               id="path11444" />
            <path
               fill="#fefeff"
               d="m 139.9,113.4 c 0,0.4 -0.4,0.7 -1,0.8 -0.6,0.1 -1.1,-0.1 -1.1,-0.5 0,-0.4 0.4,-0.7 1,-0.8 0.6,-0.1 1.1,0.2 1.1,0.5"
               id="path11446" />
            <path
               fill="#fefeff"
               d="m 140.2,129.9 c 0,0.5 -0.7,0.8 -1.6,0.8 -0.9,0 -1.6,-0.4 -1.6,-0.9 0,-0.5 0.7,-0.8 1.6,-0.8 1,0.1 1.7,0.5 1.6,0.9"
               id="path11448" />
            <path
               fill="#fefeff"
               d="m 139.8,127.7 c 0,0.6 -0.8,1 -1.8,1 -1,0 -1.7,-0.5 -1.7,-1.1 0,-0.6 0.8,-1 1.8,-0.9 1,0 1.7,0.4 1.7,1"
               id="path11450" />
            <path
               fill="#fefeff"
               d="m 139.7,115.1 c 0,0.4 -0.5,0.8 -1.3,0.9 -0.7,0.1 -1.4,-0.2 -1.4,-0.6 0,-0.4 0.5,-0.8 1.3,-0.9 0.7,-0.1 1.3,0.2 1.4,0.6"
               id="path11452" />
            <path
               fill="#fefeff"
               d="m 139.5,124.8 c 0.1,0.7 -0.8,1.4 -1.8,1.4 -1.1,0.1 -2,-0.4 -2,-1.1 -0.1,-0.7 0.8,-1.4 1.8,-1.4 1,-0.1 1.9,0.4 2,1.1"
               id="path11454" />
            <path
               fill="#fefeff"
               d="m 139.5,117 c 0.1,0.5 -0.6,1 -1.4,1.1 -0.8,0.1 -1.6,-0.2 -1.7,-0.7 -0.1,-0.5 0.6,-1 1.4,-1.1 0.9,-0.1 1.6,0.2 1.7,0.7"
               id="path11456" />
            <path
               fill="#fefeff"
               d="m 139,122.2 c 0,0.7 -0.8,1.3 -1.8,1.3 -1,0.1 -1.9,-0.4 -1.9,-1.1 0,-0.7 0.8,-1.3 1.8,-1.3 1,-0.1 1.9,0.4 1.9,1.1"
               id="path11458" />
            <path
               fill="#fefeff"
               d="m 139.4,119.2 c 0.1,0.6 -0.7,1.2 -1.7,1.3 -1,0.2 -2,-0.2 -2,-0.7 -0.1,-0.6 0.7,-1.2 1.7,-1.3 1,-0.2 1.9,0.2 2,0.7"
               id="path11460" />
            <path
               fill="#fefeff"
               d="m 142.7,110.5 c -0.1,0.2 0.2,0.5 0.6,0.7 0.4,0.2 0.8,0.1 0.9,-0.1 0.1,-0.2 -0.2,-0.5 -0.6,-0.7 -0.5,-0.1 -0.8,-0.1 -0.9,0.1"
               id="path11462" />
            <path
               fill="#fefeff"
               d="m 143.7,133.4 c 0.1,0.3 0.5,0.5 1,0.4 0.5,-0.1 0.8,-0.4 0.8,-0.8 -0.1,-0.3 -0.5,-0.5 -1,-0.4 -0.5,0.2 -0.8,0.5 -0.8,0.8"
               id="path11464" />
            <path
               fill="#fefeff"
               d="m 143.1,111.7 c -0.1,0.2 0.2,0.6 0.6,0.8 0.4,0.2 0.9,0.2 1,-0.1 0.1,-0.2 -0.2,-0.6 -0.6,-0.8 -0.4,-0.1 -0.8,-0.1 -1,0.1"
               id="path11466" />
            <path
               fill="#fefeff"
               d="m 144,131.8 c 0,0.4 0.6,0.7 1.3,0.6 0.7,-0.1 1.2,-0.4 1.2,-0.8 0,-0.4 -0.6,-0.7 -1.3,-0.6 -0.7,0.1 -1.3,0.4 -1.2,0.8"
               id="path11468" />
            <path
               fill="#fefeff"
               d="m 143.3,113.5 c 0,0.4 0.4,0.7 1,0.7 0.6,0 1.1,-0.2 1.1,-0.6 0,-0.4 -0.4,-0.7 -1,-0.7 -0.5,0 -1,0.3 -1.1,0.6"
               id="path11470" />
            <path
               fill="#fefeff"
               d="m 143.9,130.1 c 0,0.5 0.8,0.8 1.7,0.7 0.9,-0.1 1.5,-0.5 1.5,-1 0,-0.5 -0.8,-0.8 -1.7,-0.7 -0.8,0 -1.5,0.5 -1.5,1"
               id="path11472" />
            <path
               fill="#fefeff"
               d="m 144.2,127.8 c 0.1,0.6 0.9,0.9 1.8,0.9 1,-0.1 1.7,-0.6 1.6,-1.2 -0.1,-0.6 -0.9,-0.9 -1.8,-0.9 -0.9,0.1 -1.6,0.6 -1.6,1.2"
               id="path11474" />
            <path
               fill="#fefeff"
               d="m 143.6,115.3 c 0,0.4 0.6,0.8 1.3,0.8 0.7,0 1.4,-0.3 1.4,-0.7 0,-0.4 -0.6,-0.8 -1.3,-0.8 -0.8,0 -1.4,0.3 -1.4,0.7"
               id="path11476" />
            <path
               fill="#fefeff"
               d="m 144.4,124.9 c 0,0.7 0.8,1.3 1.9,1.3 1.1,0 2,-0.5 2,-1.2 0,-0.7 -0.8,-1.3 -1.9,-1.3 -1.1,-0.1 -1.9,0.5 -2,1.2"
               id="path11478" />
            <path
               fill="#fefeff"
               d="m 143.8,117.1 c 0,0.5 0.6,1 1.5,1 0.8,0.1 1.6,-0.3 1.6,-0.7 0,-0.5 -0.6,-1 -1.5,-1 -0.8,-0.2 -1.5,0.2 -1.6,0.7"
               id="path11480" />
            <path
               fill="#fefeff"
               d="m 144.7,122.2 c 0,0.7 0.8,1.2 1.8,1.2 1,0 1.8,-0.5 1.9,-1.2 0,-0.7 -0.8,-1.2 -1.8,-1.2 -1.1,0 -1.9,0.5 -1.9,1.2"
               id="path11482" />
            <path
               fill="#fefeff"
               d="m 144,119.5 c -0.1,0.6 0.8,1.1 1.8,1.2 1.1,0.1 2,-0.3 2,-0.9 0.1,-0.6 -0.8,-1.1 -1.8,-1.2 -1.1,-0.1 -2,0.3 -2,0.9"
               id="path11484" />
          </g>
          <path
             fill="#ffffff"
             d="m 169.9,102 c -0.2,-0.5 -0.6,-0.8 -1.1,-0.7 l -1.4,0.1 c -0.1,0 -0.3,0 -0.4,0 h -0.4 c -0.1,0 -0.3,0 -0.4,0 -0.1,0 -0.2,0 -0.3,0 -0.2,0 -0.5,-0.1 -0.8,-0.1 v 0 c -0.2,0 -0.5,-0.1 -0.7,-0.1 l -0.8,-0.1 c -0.5,-0.1 -0.9,-0.2 -1.6,-0.3 0,0 -0.1,0 -0.1,0 l -0.8,-0.1 c -0.1,0 -0.2,0 -0.2,0 -0.2,0 -0.4,-0.1 -0.6,-0.1 -0.2,0 -0.3,0 -0.5,0 -0.3,0 -0.7,0 -1,0 -0.1,0 -0.2,0 -0.2,0 h -0.4 c -0.1,0 -0.3,0 -0.5,0 l -0.8,0.1 c -0.3,0 -0.6,0.1 -0.9,0.1 -0.1,0 -0.2,0 -0.3,0 -0.2,0 -0.4,0.1 -0.6,0.1 l -0.8,0.2 c -0.2,0 -0.4,0.1 -0.6,0.2 -0.1,0 -0.2,0 -0.3,0.1 h -0.1 c -0.3,0.1 -0.5,0.2 -0.8,0.3 -0.1,0 -0.2,0.1 -0.3,0.1 -0.2,0.1 -0.4,0.1 -0.6,0.2 l -0.8,0.4 c -0.2,0.1 -0.4,0.2 -0.5,0.3 -0.1,0 -0.2,0.1 -0.2,0.1 -0.3,0.2 -0.6,0.3 -0.8,0.5 l -0.1,0.1 c -0.2,0.1 -0.4,0.3 -0.6,0.4 -0.1,0.1 -0.2,0.1 -0.2,0.2 -0.2,0.1 -0.3,0.2 -0.5,0.4 l -0.6,0.5 c 0,0 0,0 0,0 l -0.6,0.6 c -0.1,0.1 -0.3,0.3 -0.4,0.4 -0.1,0.1 -0.1,0.1 -0.2,0.2 -0.2,0.2 -0.3,0.3 -0.5,0.5 l -0.1,0.1 c -0.2,0.2 -0.4,0.5 -0.6,0.7 L 145,107 c -0.5,-0.2 -1.2,-0.3 -1.6,-0.1 0,-0.7 0,-1.8 0.1,-2.6 0,-0.2 -0.1,-0.3 -0.1,-0.4 v -0.2 h -0.1 c -0.1,-0.2 -0.4,-0.4 -0.6,-0.5 l -1.9,-0.4 c -0.3,-0.1 -0.7,0 -0.9,0.2 -0.3,0.2 -0.4,0.6 -0.4,0.9 l 0.2,3.3 c -0.5,-0.1 -1,-0.1 -1.6,0.1 l -0.2,-0.3 c -0.2,-0.2 -0.4,-0.5 -0.6,-0.7 l -0.1,-0.1 c -0.2,-0.2 -0.3,-0.4 -0.5,-0.5 -0.1,-0.1 -0.1,-0.1 -0.2,-0.2 -0.1,-0.1 -0.3,-0.3 -0.4,-0.4 l -0.6,-0.6 c 0,0 0,0 0,0 l -0.6,-0.5 c -0.2,-0.1 -0.3,-0.2 -0.5,-0.4 l -0.2,-0.1 c -0.2,-0.2 -0.5,-0.3 -0.7,-0.5 h -0.1 c -0.2,-0.2 -0.5,-0.3 -0.8,-0.5 -0.1,0 -0.2,-0.1 -0.2,-0.1 -0.2,-0.1 -0.4,-0.2 -0.6,-0.3 l -0.8,-0.4 c -0.2,-0.1 -0.3,-0.1 -0.5,-0.2 -0.1,0 -0.2,-0.1 -0.3,-0.1 -0.3,-0.1 -0.6,-0.2 -0.8,-0.3 h -0.1 c -0.1,0 -0.2,0 -0.2,-0.1 -0.2,-0.1 -0.4,-0.1 -0.6,-0.2 l -0.8,-0.2 c -0.2,0 -0.4,-0.1 -0.6,-0.1 -0.1,0 -0.2,0 -0.3,0 -0.3,0 -0.6,-0.1 -0.9,-0.1 l -0.8,-0.1 c -0.1,0 -0.3,0 -0.4,0 h -0.4 c -0.4,0 -0.8,0 -1.2,0 -0.2,0 -0.3,0 -0.4,0 -0.2,0 -0.5,0 -0.7,0.1 -0.1,0 -0.2,0 -0.2,0 l -0.8,0.1 c -0.1,0 -0.1,0 -0.1,0 -0.6,0.1 -1.1,0.2 -1.5,0.3 l -0.8,0.1 c -0.2,0 -0.5,0.1 -0.7,0.1 h -0.1 c -0.2,0 -0.5,0.1 -0.7,0.1 -0.1,0 -0.2,0 -0.3,0 -0.1,0 -0.3,0 -0.4,0 h -0.3 c -0.1,0 -0.3,0 -0.4,0 l -1.4,-0.1 c -0.5,0 -0.9,0.3 -1.1,0.7 -0.2,0.5 0,1 0.4,1.2 l 0.5,0.4 c 0.4,0.3 0.9,0.7 1.4,1.2 0.4,0.4 0.9,0.9 1.3,1.4 0.4,0.4 0.7,0.9 1.1,1.5 0.3,0.5 0.6,1 0.9,1.6 0,0.1 0.1,0.1 0.1,0.2 0,0.1 0.1,0.1 0.1,0.2 l 0.3,0.7 c 0.1,0.3 0.2,0.5 0.3,0.8 0.3,0.6 0.7,1.2 1.2,2 0.4,0.6 0.8,1.1 1.4,1.7 0.5,0.6 1,1.1 1.6,1.6 0.5,0.4 1.1,0.9 1.7,1.4 0.1,0.1 0.3,0.2 0.4,0.3 -0.6,0.5 -1.2,1.1 -1.8,1.7 0,0 0,0 0,0 0,0 -0.3,0.3 -0.8,0.9 -1.3,1.6 -2.4,3.3 -3.1,5.1 -0.1,0.2 -0.2,0.4 -0.2,0.6 0,0 0,0 0,0 -0.6,1.7 -1,3.3 -1,4.9 -0.2,2.6 0.2,4.5 0.3,5.1 0,0.2 0,0.5 0.1,0.8 0.2,0.9 0.8,1.6 1.6,1.9 0,0 0,0 0,0 0.7,0.3 1.4,0.2 1.5,0.2 0.1,0 0.2,0 0.3,0 h 0.1 0.1 c 0.5,0 0.9,0 1.2,-0.1 0.6,0 2.3,-0.2 4.5,-1.2 2.7,-1.1 5,-2.7 6.9,-5 1.8,3.1 3.9,4.9 4.5,5.3 0.8,1 1.7,1.2 2.3,1.2 1.2,0 2.1,-0.8 2.3,-1 1.7,-1.6 3,-3.3 4.1,-5.1 1.8,2 4,3.5 6.5,4.5 2.2,1 4,1.2 4.5,1.2 0.3,0.1 0.7,0.1 1.2,0.1 h 0.1 0.1 c 0.1,0 0.2,0 0.3,0 0.1,0 0.8,0.1 1.5,-0.2 0.8,-0.3 1.4,-1 1.6,-1.9 0.1,-0.3 0.1,-0.6 0.1,-0.8 0.1,-0.6 0.5,-2.5 0.3,-5.1 -0.1,-1.6 -0.4,-3.3 -1,-5 v 0 c 0,0 0,0 0,0 -0.1,-0.2 -0.1,-0.4 -0.2,-0.5 -0.7,-1.8 -1.8,-3.6 -3.1,-5.2 -0.5,-0.6 -0.8,-0.9 -0.8,-0.9 0,0 0,0 0,0 -0.6,-0.6 -1.2,-1.2 -1.8,-1.7 0.1,-0.1 0.2,-0.2 0.3,-0.2 0.6,-0.4 1.2,-0.9 1.7,-1.4 0.5,-0.5 1,-1 1.5,-1.5 0.6,-0.6 1,-1.2 1.4,-1.7 0.5,-0.7 0.9,-1.3 1.2,-2 0.2,-0.3 0.2,-0.6 0.3,-0.9 l 0.3,-0.7 c 0,-0.1 0.1,-0.1 0.1,-0.2 0,-0.1 0.1,-0.1 0.1,-0.2 0.2,-0.6 0.6,-1.1 0.8,-1.5 0.4,-0.6 0.8,-1.1 1.1,-1.5 0.4,-0.5 0.9,-1 1.3,-1.4 0.5,-0.5 1,-0.9 1.4,-1.2 l 0.5,-0.4 c -0.2,0 0,-0.5 -0.2,-0.9 z m -22.4,13.1 v 0 c 0.3,0.7 0.6,1.5 0.9,2.4 v 0 c 0.3,0.9 0.5,1.8 0.6,2.9 0.1,1 0.2,2.2 0.1,3.4 0,0.2 0,0.3 0,0.5 -0.1,2.2 -0.6,4.6 -1.6,7.4 0,0 -1.3,2.6 -2.3,3.8 -1,1.2 -1.6,2.6 -2.6,2.6 -0.1,0 -0.2,0 -0.3,0 -0.1,0 -0.2,0 -0.3,0 -0.9,0 -1.6,-1.5 -2.6,-2.5 -0.9,-0.9 -2.5,-3.7 -2.5,-3.7 -0.2,-0.4 -0.3,-0.8 -0.5,-1.2 -0.2,-0.5 -0.4,-1 -0.5,-1.5 v 0 c -1.4,-4.2 -1.5,-7.4 -1.1,-10 v 0 c 0.3,-1.9 1,-3.5 1.7,-4.8 v 0 c 0.8,-1.5 1.6,-2.7 2,-3.8 0.2,-0.5 0.4,-0.9 0.7,-1.3 v 0 c 0.8,-1.1 1.6,-1.3 2.1,-1.3 0,0 0,0 0,0 0.2,0 0.3,0 0.4,0.1 0.1,0 0.3,-0.1 0.4,-0.1 0,0 0,0 0.1,0 0.2,0 0.4,0 0.6,0.1 0,0 0.1,0 0.1,0 0.2,0.1 0.5,0.2 0.8,0.4 0,0 0,0 0,0 0.3,0.2 0.6,0.5 0.8,1 0.2,0.3 0.4,0.6 0.5,1 0.4,0.9 1.1,2.1 1.8,3.4 v 0 c 0.3,0.3 0.5,0.7 0.7,1.2 z m -22.7,-0.3 c -0.5,-0.5 -1,-0.9 -1.4,-1.4 -0.5,-0.6 -0.9,-1 -1.2,-1.5 -0.4,-0.6 -0.7,-1.1 -1,-1.7 -0.1,-0.2 -0.2,-0.4 -0.2,-0.6 l -0.3,-0.7 c 0,-0.1 -0.1,-0.3 -0.2,-0.4 0,0 0,-0.1 -0.1,-0.1 -0.3,-0.7 -0.7,-1.3 -1.1,-1.9 -0.5,-0.7 -0.9,-1.2 -1.3,-1.7 -0.4,-0.5 -0.8,-0.9 -1.3,-1.4 0.1,0 0.1,0 0.2,0 0.3,0 0.6,-0.1 0.9,-0.1 v 0 c 0.3,0 0.5,-0.1 0.8,-0.1 l 0.8,-0.1 c 0.5,-0.1 1,-0.2 1.6,-0.3 l 0.7,-0.1 c 0.1,0 0.2,0 0.3,0 0.2,0 0.3,0 0.5,0 0.2,0 0.3,0 0.5,0 0.3,0 0.6,0 0.9,0 0.1,0 0.1,0 0.2,0 h 0.1 0.3 c 0.1,0 0.2,0 0.3,0 l 0.8,0.1 c 0.2,0 0.4,0 0.7,0.1 0.1,0 0.2,0 0.3,0 0.2,0 0.3,0 0.5,0.1 l 0.8,0.2 c 0.1,0 0.3,0.1 0.4,0.1 0.1,0 0.2,0.1 0.3,0.1 h 0.1 c 0.2,0.1 0.4,0.1 0.6,0.2 0.1,0 0.2,0.1 0.3,0.1 0.1,0.1 0.3,0.1 0.4,0.2 l 0.7,0.3 c 0.1,0.1 0.3,0.1 0.4,0.2 0.1,0 0.2,0.1 0.3,0.2 0.2,0.1 0.4,0.2 0.6,0.4 l 0.1,0.1 c 0.2,0.1 0.4,0.2 0.5,0.4 l 0.2,0.2 c 0.1,0.1 0.3,0.2 0.4,0.3 l 0.6,0.5 0.6,0.5 c 0.1,0.1 0.2,0.2 0.3,0.3 0.1,0.1 0.1,0.2 0.2,0.2 0.1,0.1 0.3,0.3 0.4,0.4 l 0.1,0.2 c 0.2,0.2 0.3,0.4 0.5,0.6 l 0.5,0.6 c 0,0.1 0.1,0.1 0.1,0.2 -0.3,0.5 -0.5,0.9 -0.5,1 -0.6,1.2 -1.1,2.4 -1.5,3.5 v 0 c -1.1,0 -2.1,0.5 -2.3,0.7 -1.9,0.8 -3.4,1.8 -4.8,2.8 -0.1,-0.1 -0.2,-0.1 -0.4,-0.2 l -0.3,-0.2 c -0.1,-0.1 -0.2,-0.1 -0.3,-0.2 -0.2,-0.1 -0.3,-0.2 -0.5,-0.4 -0.2,-0.9 -0.7,-1.3 -1.1,-1.7 z m -2.8,20.7 c 0,0 -0.9,0.4 -0.7,-0.9 0.2,-1.3 5.3,-9.9 8,-13.7 0,0 -6.9,8.7 -8.5,11.1 0,-0.7 -0.1,-2.5 0.3,-4.8 1.3,-4 4.5,-8.5 11.8,-11.9 h 0.1 c 0,0 0.2,-0.1 0.6,-0.3 -0.2,0.1 -0.3,0.2 -0.4,0.4 0,0 0,0 -0.1,0 -0.6,0.3 -4.8,3.1 -5.4,4.1 0,0 -0.6,0.7 -0.4,0.8 0.1,0.1 0.6,0.1 0.9,-0.3 1.1,-1.1 4.3,-3.9 5.1,-4.4 0,0 0,0 0,0 0.3,-0.2 0.6,-0.4 0.8,-0.5 -0.5,1.5 -0.8,3 -0.9,4.3 -1.2,2.1 -2.8,4.5 -4.3,6.1 0,0 2.1,-2 4.2,-4.4 -0.1,1.1 0,2.1 0.1,3.1 -2.4,3.3 -9,11.5 -11.2,11.3 z m 1.1,0.9 c 0,0 7.5,-6.6 10.2,-11.4 0.2,1.1 0.4,2.2 0.7,3.2 -2.4,2.7 -7.9,8.4 -10.9,8.2 z m 5.2,-1.4 c 0,0 2.8,-1.8 5.8,-6.5 0.2,0.7 0.5,1.4 0.8,2 -0.4,0.5 -0.8,1 -1.2,1.5 -1.8,1.3 -4.2,2.9 -5.4,3 z m 20.9,-3 c -0.1,-0.1 -0.2,-0.3 -0.3,-0.4 0.3,-0.6 0.6,-1.2 0.8,-1.8 2.7,3.7 4.9,5.2 4.9,5.2 -1.2,-0.1 -3.6,-1.7 -5.4,-3 z m 0.6,-2.8 c 0.3,-0.9 0.5,-1.8 0.7,-2.7 3.2,4.6 9.3,10 9.3,10 -2.7,0.1 -7.3,-4.4 -10,-7.3 z m 11.8,-2 c 0.5,2.2 0.4,4.1 0.3,4.8 -1.6,-2.4 -8.5,-11.1 -8.5,-11.1 2.7,3.8 7.9,12.4 8,13.7 0.2,1.3 -0.7,0.9 -0.7,0.9 -2,0.1 -7.4,-6.3 -10.3,-10 0.1,-1.1 0.2,-2.2 0.1,-3.2 1.7,1.9 3.2,3.2 3.2,3.2 -1.1,-1.2 -2.2,-2.7 -3.3,-4.3 -0.2,-2 -0.6,-3.9 -1.2,-5.6 0,0 0,0 0,0 0,0 0,0 0,0 0.8,0.5 4.1,3.3 5.1,4.4 0.3,0.3 0.8,0.4 0.9,0.3 0.1,-0.2 -0.4,-0.8 -0.4,-0.8 -0.6,-1 -4.8,-3.8 -5.4,-4.1 0,0 0,0 -0.1,0 -0.1,-0.1 -0.3,-0.2 -0.4,-0.3 0,0 0,0 0,0 0.3,0.1 0.5,0.2 0.5,0.2 h 0.1 c 7.7,3.4 10.8,7.9 12.1,11.9 z m 3.1,-22.5 c -0.4,0.5 -0.8,1 -1.3,1.7 -0.3,0.5 -0.7,1.2 -1,1.9 0,0 0,0.1 -0.1,0.1 -0.1,0.1 -0.1,0.3 -0.2,0.4 l -0.3,0.7 c -0.1,0.2 -0.1,0.4 -0.3,0.6 -0.2,0.5 -0.5,1 -1,1.6 -0.3,0.5 -0.7,1 -1.2,1.5 -0.4,0.5 -0.9,1 -1.4,1.4 -0.5,0.4 -1,0.9 -1.5,1.3 -0.2,0.1 -0.3,0.2 -0.5,0.3 -0.1,0.1 -0.2,0.1 -0.3,0.2 l -0.2,0.1 c -0.1,0.1 -0.3,0.2 -0.4,0.3 -1.4,-1 -3,-1.9 -4.8,-2.7 -0.2,-0.1 -0.9,-0.4 -1.7,-0.6 -0.5,-1.2 -1,-2.3 -1.3,-3.1 -0.2,-0.3 -0.3,-0.6 -0.4,-0.9 -0.2,-0.4 -0.3,-0.7 -0.5,-1 l 0.3,-0.4 c 0.2,-0.2 0.3,-0.4 0.5,-0.6 l 0.1,-0.2 c 0.1,-0.1 0.2,-0.3 0.4,-0.4 0.1,-0.1 0.1,-0.2 0.2,-0.2 0.1,-0.1 0.2,-0.2 0.3,-0.3 l 0.6,-0.5 0.6,-0.5 c 0.1,-0.1 0.2,-0.2 0.4,-0.3 0.1,-0.1 0.2,-0.1 0.3,-0.2 0.1,-0.1 0.3,-0.2 0.5,-0.3 l 0.1,-0.1 c 0.2,-0.1 0.4,-0.3 0.6,-0.4 0.1,0 0.2,-0.1 0.3,-0.1 0.1,-0.1 0.3,-0.2 0.4,-0.2 l 0.7,-0.3 c 0.1,-0.1 0.3,-0.1 0.4,-0.2 0.1,0 0.2,-0.1 0.3,-0.1 0.2,-0.1 0.4,-0.1 0.6,-0.2 h 0.1 c 0.1,0 0.2,-0.1 0.3,-0.1 0.1,0 0.3,-0.1 0.4,-0.1 l 0.8,-0.2 c 0.1,0 0.3,-0.1 0.4,-0.1 0.1,0 0.2,0 0.3,0 0.2,0 0.5,-0.1 0.7,-0.1 l 0.8,-0.1 c 0.1,0 0.2,0 0.3,0 h 0.3 0.2 c 0.3,0 0.7,0 1,0 0.2,0 0.3,0 0.5,0 0.1,0 0.3,0 0.4,0 0.1,0 0.2,0 0.3,0 l 0.8,0.1 c 0.6,0.1 1.1,0.2 1.6,0.3 l 0.8,0.1 c 0.3,0 0.5,0.1 0.8,0.1 v 0 c 0.3,0 0.6,0.1 0.9,0.1 0.1,0 0.1,0 0.2,0 -0.2,0.8 -0.7,1.3 -1.1,1.7 z"
             id="path11488" />
        </g>
        <g
           id="g11512">
          <g
             id="g11496">
            <path
               fill="#ffffff"
               d="m 194.8,150.5 c 2.8,-2.8 5.2,-3.5 5.2,-1.6 0,2 -2.3,4.6 -5.1,5.9 -2.8,1.3 -5.1,2 -5.2,1.6 -0.1,-0.5 2.2,-3.1 5.1,-5.9 z"
               id="path11492" />
            <path
               fill="none"
               stroke="#ffffff"
               stroke-width="0.9403"
               stroke-miterlimit="10"
               d="m 194.8,150.5 c 2.8,-2.8 5.2,-3.5 5.2,-1.6 0,2 -2.3,4.6 -5.1,5.9 -2.8,1.3 -5.1,2 -5.2,1.6 -0.1,-0.5 2.2,-3.1 5.1,-5.9 z"
               id="path11494" />
          </g>
          <g
             id="g11510">
            <path
               fill="#ffffff"
               d="m 117.2,176.9 c -1.2,3.7 -2.7,6.7 -4.5,8.8 -1.6,1.8 -3.3,3 -5.2,3.6 -1.8,0.6 -4.5,0.9 -8,0.8 -3.3,-0.1 -6.1,-0.8 -8.2,-2.2 -1.4,-0.9 -2.6,-2 -3.6,-3.1 -2.6,2.8 -5.8,4.5 -9.5,5.3 -1.5,0.3 -3,0.4 -4.6,0.4 h -1.4 c -2.6,0 -5.1,-0.6 -7.5,-1.8 -2.2,-1.1 -4.1,-2.5 -5.4,-4.1 -2.3,-2.8 -3.6,-5.9 -3.8,-9.1 -0.3,-4.9 0.7,-9 3,-12.2 2.6,-3.7 6.6,-5.6 11.9,-5.8 2,-0.1 3.9,0.3 5.5,1.2 1.6,0.9 2.8,2.1 3.6,3.6 3.2,-1.5 7.9,-2.4 14,-2.8 0,0 0.1,-0.3 0.3,-0.9 1.6,-3.9 3.1,-7.8 4.7,-11.5 -3.2,1.2 -5.7,2.4 -7.6,3.6 -2.3,1.5 -4.2,3.5 -5.8,6.1 -0.1,0.2 -0.3,0.4 -0.4,0.8 -0.2,0.3 -0.3,0.6 -0.4,0.7 -0.3,0.4 -0.5,0.5 -0.7,0.2 -0.8,-1.2 -2.1,-2.1 -3.8,-2.6 -0.3,-0.1 -0.5,-0.1 -0.7,-0.2 -0.3,-0.1 -0.4,-0.1 -0.5,-0.1 -0.1,0 -0.1,-0.1 -0.1,-0.3 0.1,-0.2 0.2,-0.3 0.4,-0.5 1,-0.9 2.1,-1.7 3.3,-2.5 2.7,-1.7 5.5,-3.1 8.4,-4.3 5.1,-2.1 9.9,-3.2 14.3,-3.4 4.6,-0.2 8,0.4 10.1,1.9 1.9,1.4 2.3,3.7 1.3,7 -0.7,2.1 -1.9,3.8 -3.7,4.9 -1.4,1 -3.5,1.6 -6.2,1.9 2.9,0.7 5.3,1.7 7.2,2.9 2.6,1.6 4.1,3.9 4.4,6.9 0.5,1.7 0.1,3.9 -0.8,6.8 z m -50.2,10 c 1.7,1.3 3.4,2 5,2.1 3.4,0.2 6.3,-0.8 8.7,-3 2.6,-3 5.2,-7.3 7.6,-12.9 1,-2.3 2.6,-6.3 4.8,-11.9 -5,0.2 -9.2,1.1 -12.6,2.8 0.7,2 0.9,4.1 0.5,6.5 -0.4,2.3 -1.2,4.1 -2.4,5.5 -0.7,0.8 -1.5,1.5 -2.4,1.9 -1.2,0.6 -2.3,0.6 -3.3,0.1 -1.3,-0.7 -1.9,-2.3 -1.8,-4.6 0.1,-1.9 0.4,-3.6 1.2,-4.9 1.3,-2.4 3.3,-4.2 6,-5.3 -1.5,-2.4 -3.6,-3.5 -6.4,-3.4 -2.3,0.1 -4.3,0.8 -6,2.2 -1.8,1.5 -3.1,3.6 -3.9,6.3 -1.5,4.9 -1.1,9.4 1,13.6 0.9,2 2.3,3.7 4,5 z m 12,-22.3 c -1.4,0.7 -2.6,1.6 -3.7,2.7 -2,2 -2.8,4.6 -2.5,7.7 0.2,0.9 0.5,1.5 1.1,1.8 0.8,0.4 1.6,0.2 2.5,-0.6 1.2,-1 2.1,-2.5 2.7,-4.6 0.4,-1.4 0.6,-2.5 0.6,-3.5 0,-1.3 -0.2,-2.5 -0.7,-3.5 0,0 0,0 0,0 z m 29.1,-1.5 c -2,-0.9 -4.8,-1.6 -8.5,-1.9 -1.6,4.4 -3,7.8 -4.1,10.3 -3,6.9 -5.1,10.9 -6.5,12.1 1.4,2.1 3.3,3.5 5.8,4.3 2.1,0.7 4,0.9 5.8,0.5 4.4,-0.9 8,-5.5 10.8,-13.8 2.1,-5.8 0.9,-9.6 -3.3,-11.5 z m -3.4,-16.9 c -0.6,2.2 -2.1,6.5 -4.5,13.1 6.9,-0.9 10.5,-4.5 10.7,-10.9 0.2,-1.7 -1.9,-2.5 -6.2,-2.2 z"
               id="path11498" />
            <path
               fill="#ffffff"
               d="m 133.3,176.7 c 0.4,0 0.5,0.5 0.2,1.5 -1.2,2.6 -2.1,4.7 -2.8,6.1 -0.3,0.7 -1,1.8 -2.1,3.5 -1.1,1.7 -2.6,2.6 -4.4,2.7 -1.6,0.1 -2.8,0 -3.7,-0.3 -1.3,-0.5 -2.3,-1.5 -2.9,-2.9 -0.4,-1 -0.6,-2 -0.5,-3.1 0.2,-1.7 0.5,-3.7 1.2,-5.9 1.5,-5 2.5,-8.2 3.2,-9.7 0.4,-0.9 1.3,-1.4 2.8,-1.4 1.8,0 2.9,0.2 3.3,0.6 0.4,0.4 0.4,1.2 0,2.3 0,0.1 -0.5,1.4 -1.3,3.7 -0.9,2.5 -1.3,3.7 -1.3,3.8 -1.2,3.7 -1.7,6.4 -1.6,8.1 0.1,0.6 0.2,1.1 0.5,1.7 0.4,0.8 0.9,1.3 1.5,1.3 0.9,0.1 2.1,-1.3 3.5,-4 0.8,-1.4 1.9,-3.7 3.3,-6.9 0.3,-0.6 0.7,-1.1 1.1,-1.1 z m -3.8,-20.8 c -1,0 -1.8,-0.3 -2.6,-0.9 -0.7,-0.6 -1.1,-1.4 -1.1,-2.3 0,-0.9 0.3,-1.7 1,-2.4 0.7,-0.7 1.5,-1 2.5,-1 1,0 1.8,0.3 2.6,0.9 0.7,0.6 1.1,1.4 1.1,2.3 0,0.9 -0.3,1.7 -1,2.4 -0.7,0.6 -1.5,1 -2.5,1 z"
               id="path11500" />
            <path
               fill="#ffffff"
               d="m 158.6,176.8 c 0.2,0.2 0.3,0.4 0.2,0.7 -0.3,0.9 -1,2.5 -2.2,4.8 -1.1,2.3 -2.1,4 -2.8,5.1 -1,1.6 -2,2.5 -2.9,2.9 -0.4,0.2 -0.8,0.3 -1.2,0.3 h -17.1 c -0.8,-0.1 -1.2,-0.4 -1.2,-1 0,-0.4 0.3,-1.1 1.1,-2.2 1.3,-1.8 3.1,-4.3 5.6,-7.3 h -1.3 c -0.3,0 -0.5,-0.1 -0.7,-0.3 -0.2,-0.2 -0.3,-0.4 -0.3,-0.7 0,-0.3 0.1,-0.5 0.3,-0.7 0.2,-0.2 0.4,-0.3 0.7,-0.3 h 2.9 c 2.6,-3.3 4.9,-5.9 6.8,-8 -4.5,0 -7.4,0 -8.6,0 -0.3,0 -0.6,0.2 -0.8,0.5 -0.2,0.3 -0.5,0.9 -0.9,1.7 -1.6,3.6 -2.9,6.3 -3.8,8 -0.2,0.5 -0.4,0.7 -0.5,0.8 -0.2,0.2 -0.3,0.1 -0.6,0 -0.2,-0.2 -0.2,-0.4 -0.1,-0.8 0.1,-0.2 0.2,-0.6 0.6,-1.3 1.1,-2.4 2.4,-5.6 4,-9.7 0.2,-0.5 0.5,-1 0.8,-1.3 0.3,-0.3 0.5,-0.5 0.8,-0.5 0.9,-0.1 3.9,-0.1 9,-0.1 5.2,0 8,0.1 8.2,0.2 0.5,0.3 0.6,0.7 0.1,1.3 -0.4,0.5 -0.8,1 -1.3,1.6 0.1,-0.1 -2.1,2.5 -6.4,7.7 h 1.6 c 0.3,0 0.5,0.1 0.7,0.3 0.2,0.2 0.3,0.4 0.3,0.7 0,0.3 -0.1,0.5 -0.3,0.7 -0.2,0.2 -0.4,0.3 -0.7,0.3 h -3.2 c -3.3,3.9 -5.2,6.4 -5.8,7.3 7.3,0 11.1,0 11.5,-0.1 0.9,-0.1 1.5,-0.6 2,-1.3 1.5,-2.3 3,-5.1 4.4,-8.3 0.2,-0.4 0.3,-0.7 0.4,-0.8 0.2,-0.4 0.4,-0.5 0.7,-0.2 z"
               id="path11502" />
            <path
               fill="#ffffff"
               d="m 171.8,176.7 c 0.4,0 0.5,0.5 0.2,1.5 -1.2,2.6 -2.1,4.7 -2.8,6.1 -0.3,0.7 -1,1.8 -2.1,3.5 -1.1,1.7 -2.6,2.6 -4.4,2.7 -1.6,0.1 -2.8,0 -3.7,-0.3 -1.3,-0.5 -2.3,-1.5 -2.9,-2.9 -0.4,-1 -0.6,-2 -0.5,-3.1 0.2,-1.7 0.5,-3.7 1.2,-5.9 1.5,-5 2.5,-8.2 3.2,-9.7 0.4,-0.9 1.3,-1.4 2.8,-1.4 1.8,0 2.9,0.2 3.3,0.6 0.4,0.4 0.4,1.2 0,2.3 0,0.1 -0.5,1.4 -1.3,3.7 -0.9,2.5 -1.3,3.7 -1.3,3.8 -1.2,3.7 -1.7,6.4 -1.6,8.1 0.1,0.6 0.2,1.1 0.5,1.7 0.4,0.8 0.9,1.3 1.5,1.3 0.9,0.1 2.1,-1.3 3.5,-4 0.8,-1.4 1.9,-3.7 3.3,-6.9 0.4,-0.6 0.8,-1.1 1.1,-1.1 z m -3.7,-20.8 c -1,0 -1.8,-0.3 -2.6,-0.9 -0.7,-0.6 -1.1,-1.4 -1.1,-2.3 0,-0.9 0.3,-1.7 1,-2.4 0.7,-0.7 1.5,-1 2.5,-1 1,0 1.8,0.3 2.6,0.9 0.7,0.6 1.1,1.4 1.1,2.3 0,0.9 -0.3,1.7 -1,2.4 -0.7,0.6 -1.5,1 -2.5,1 z"
               id="path11504" />
            <path
               fill="#ffffff"
               d="m 199.3,177.8 c 0,0.2 -0.1,0.5 -0.2,0.7 -1.1,2.5 -2,4.5 -2.7,5.9 -0.4,0.9 -1.1,2.1 -2,3.6 -1,1.6 -2.5,2.5 -4.4,2.6 -1.5,0.1 -2.7,0 -3.7,-0.3 -0.6,-0.2 -1.3,-0.7 -1.9,-1.6 -1.7,1.2 -3.8,1.9 -6.4,1.9 -1.6,0 -3,-0.3 -4.4,-0.9 -1.4,-0.7 -2.5,-1.8 -3.2,-3.3 -0.5,-1.2 -0.7,-2.4 -0.7,-3.8 0,-1.6 0.3,-3.3 0.7,-5.1 1,-4.2 2.5,-7.1 4.6,-8.8 0.7,-0.6 1.7,-1 2.9,-1.3 1.4,-0.3 2.9,-0.3 4.6,0 1.8,0.3 3.2,0.9 4.2,1.7 0.1,0.1 0.2,0.2 0.3,0.3 0.3,-0.7 0.4,-1 0.4,-1.1 0.6,-0.7 1.5,-1.1 2.7,-1.2 1.2,0 2.2,0.3 3.1,0.9 0.4,0.4 0.4,1.2 0,2.3 0,0 -0.2,0.4 -0.4,1.2 -0.3,0.9 -0.6,1.8 -0.9,2.6 -1,2.8 -1.8,5.3 -2.4,7.6 -0.8,2.7 -0.8,4.6 -0.2,5.8 0.3,0.6 0.9,1 1.5,1.2 0.4,0.1 0.7,0 1,-0.2 0.3,-0.2 0.6,-0.5 1.1,-1 0.6,-0.7 1.1,-1.6 1.6,-2.6 0.7,-1.4 1.8,-3.6 3.2,-6.6 0.5,-1 0.9,-1.5 1.2,-1.5 0.4,0.2 0.5,0.5 0.4,1 z m -17.6,7.1 c 0.5,-0.9 1.5,-3.6 2.9,-8.3 0.8,-3.1 1.2,-5.1 1.2,-6.1 -0.2,-0.3 -0.4,-0.5 -0.7,-0.6 -0.9,-0.5 -1.8,-0.6 -2.7,-0.5 -0.9,0.2 -1.4,0.5 -1.8,0.8 -1.9,2.2 -3.3,5.9 -4.2,11.1 -0.5,2.9 -0.4,5 0.4,6.4 0.3,0.4 0.8,0.6 1.4,0.6 0.4,0 0.8,-0.2 1.3,-0.6 0.6,-0.4 1.4,-1.4 2.2,-2.8 z"
               id="path11506" />
            <path
               fill="#ffffff"
               d="m 226.5,177.8 c 0,0.2 -0.1,0.5 -0.2,0.7 -1.1,2.5 -2,4.5 -2.7,5.9 -0.4,0.9 -1.1,2.1 -2,3.6 -1,1.6 -2.5,2.5 -4.4,2.6 -1.5,0.1 -2.7,0 -3.7,-0.3 -0.6,-0.2 -1.3,-0.7 -1.9,-1.6 -1.7,1.2 -3.8,1.9 -6.4,1.9 -1.6,0 -3,-0.3 -4.4,-0.9 -1.4,-0.7 -2.5,-1.8 -3.2,-3.3 -0.5,-1.2 -0.7,-2.4 -0.7,-3.8 0,-1.6 0.3,-3.3 0.7,-5.1 1,-4.2 2.5,-7.1 4.6,-8.8 0.7,-0.6 1.7,-1 2.9,-1.3 1.4,-0.3 2.9,-0.3 4.6,0 1.8,0.3 3.2,0.9 4.2,1.7 0.1,0.1 0.2,0.2 0.3,0.3 0.3,-0.7 0.4,-1 0.4,-1.1 0.6,-0.7 1.5,-1.1 2.7,-1.2 1.2,0 2.2,0.3 3.1,0.9 0.4,0.4 0.4,1.2 0,2.3 0,0 -0.2,0.4 -0.4,1.2 -0.3,0.9 -0.6,1.8 -0.9,2.6 -1,2.8 -1.8,5.3 -2.4,7.6 -0.8,2.7 -0.8,4.6 -0.2,5.8 0.3,0.6 0.9,1 1.5,1.2 0.4,0.1 0.7,0 1,-0.2 0.3,-0.2 0.6,-0.5 1.1,-1 0.6,-0.7 1.1,-1.6 1.6,-2.6 0.7,-1.4 1.8,-3.6 3.2,-6.6 0.5,-1 0.9,-1.5 1.2,-1.5 0.4,0.2 0.5,0.5 0.4,1 z m -17.6,7.1 c 0.5,-0.9 1.5,-3.6 2.9,-8.3 0.8,-3.1 1.2,-5.1 1.2,-6.1 -0.2,-0.3 -0.4,-0.5 -0.7,-0.6 -0.9,-0.5 -1.8,-0.6 -2.7,-0.5 -0.9,0.2 -1.4,0.5 -1.8,0.8 -1.9,2.2 -3.3,5.9 -4.2,11.1 -0.5,2.9 -0.4,5 0.4,6.4 0.3,0.4 0.8,0.6 1.4,0.6 0.4,0 0.8,-0.2 1.3,-0.6 0.6,-0.4 1.4,-1.4 2.2,-2.8 z"
               id="path11508" />
          </g>
        </g>
        <circle
           fill="none"
           stroke="#ffffff"
           stroke-width="1.3784"
           stroke-linecap="round"
           stroke-miterlimit="10"
           stroke-dasharray="6.6045, 6.6045"
           cx="141.7"
           cy="166.2"
           r="113.3"
           id="circle11514" />
      </g>
    </g>
  </g>
</svg>
